<svg width="755" height="452" viewBox="0 0 755 452" fill="none" xmlns="http://www.w3.org/2000/svg">
<path d="M414 362.98V451.98H480.922L550 362.98H414Z" fill="#AAE500"/>
<path d="M414 180.98C414 210.645 414 240.316 414 269.98C462.278 269.98 510.552 269.98 558.827 269.98L628 180.98C556.668 180.98 485.332 180.98 414 180.98Z" fill="#AAE500"/>
<path d="M414 0.980469C414 30.6447 414 60.3161 414 89.9805C489.197 89.9805 564.393 89.9805 639.59 89.9805L709 0.980469C610.665 0.980469 512.335 0.980469 414 0.980469Z" fill="#AAE500"/>
<path d="M732.438 0.980469C709.292 30.6933 686.146 60.4133 663 90.1263C687.396 124.634 711.629 159.264 735.692 194.01C781.381 259.978 826.465 326.363 870.946 393.151C874.245 397.707 880.666 405.341 891.198 411.124C895.827 413.667 913.764 423.144 935.319 416.873C951.203 412.252 960.446 401.575 963.89 397.105C1021.75 310.352 1079.61 223.608 1137.48 136.856L1191 167.05L1160.62 15.3588L1015.6 68.1991L1064.06 95.5181L919.405 302.566L732.438 0.980469Z" fill="#AAE500"/>
<path d="M597 451.98C634.373 451.98 671.742 451.98 709.115 451.98C740.074 408.934 771.033 365.887 802 322.84C784.581 297.156 767.063 271.543 749.462 245.98C698.64 314.647 647.822 383.312 597 451.98Z" fill="#AAE500"/>
<path d="M362.659 0.980469C356.865 1.18873 336.037 2.64658 317.868 18.9343C297.351 37.319 295.112 61.2623 294.751 66.3323C294.751 165.2 294.751 264.062 294.751 362.929C229.248 362.929 163.753 362.929 98.2501 362.929C98.2501 242.28 98.2501 121.63 98.2501 0.980469C88.1362 0.980469 78.0223 0.980469 67.9081 0.980469C62.1145 1.18873 41.2866 2.64658 23.1177 18.9343C2.60075 37.319 0.361212 61.2623 0 66.3323C0 165.2 0 264.062 0 362.929C0 372.093 0 381.264 0 390.427C0.209504 395.677 1.67603 414.559 18.0607 431.024C36.5547 449.617 60.6407 451.65 65.7408 451.98C174.828 451.98 283.914 451.98 393 451.98C393 422.301 393 392.61 393 362.929C393 242.28 393 121.63 393 0.980469C382.886 0.980469 372.773 0.980469 362.659 0.980469Z" fill="#AAE500"/>
</svg>
