<svg version="1.2" xmlns="http://www.w3.org/2000/svg" viewBox="0 0 377 227" width="377" height="227">
	<defs>
		<clipPath clipPathUnits="userSpaceOnUse" id="cp1">
			<path d="m-5.76-0.4h392.9c4 0 7.24 3.24 7.24 7.24v226.33c0 4-3.24 7.24-7.24 7.24h-392.9c-4 0-7.24-3.24-7.24-7.24v-226.33c0-4 3.24-7.24 7.24-7.24z"/>
		</clipPath>
		<linearGradient id="g1" x2="1" gradientUnits="userSpaceOnUse" gradientTransform="matrix(66.624,133.249,-325.053,162.525,310.168,93.096)">
			<stop offset="0" stop-color="#dcd69d" stop-opacity="1"/>
			<stop offset="1" stop-color="#ffffff" stop-opacity="0"/>
		</linearGradient>
		<linearGradient id="g2" x2="1" gradientUnits="userSpaceOnUse" gradientTransform="matrix(96.756,124.879,-228.461,177.012,280.036,101.465)">
			<stop offset="0" stop-color="#9be3af" stop-opacity="1"/>
			<stop offset="1" stop-color="#ffffff" stop-opacity="0"/>
		</linearGradient>
		<linearGradient id="g3" x2="1" gradientUnits="userSpaceOnUse" gradientTransform="matrix(52.898,159.698,-398.5,131.998,323.894,66.647)">
			<stop offset="0" stop-color="#60cbd5" stop-opacity="1"/>
			<stop offset="1" stop-color="#ffffff" stop-opacity="0"/>
		</linearGradient>
	</defs>
	<style>
		.s0 { fill: #ffffff } 
		.s1 { opacity: .22;fill: none;stroke: #001545;stroke-width: .4 } 
		.s2 { opacity: .03;fill: none;stroke: #001545;stroke-width: .4 } 
		.s3 { opacity: .6;fill: url(#g1) } 
		.s4 { fill: none;stroke: #c1b752;stroke-width: .9 } 
		.s5 { opacity: .6;fill: url(#g2) } 
		.s6 { fill: none;stroke: #32b356;stroke-width: .9 } 
		.s7 { opacity: .6;fill: url(#g3) } 
		.s8 { fill: none;stroke: #39becb;stroke-width: .9 } 
	</style>
	<g>
		<g id="Clip-Path" clip-path="url(#cp1)">
			<g>
				<path fill-rule="evenodd" class="s0" d="m-5.76-0.4h392.9c4 0 7.24 3.24 7.24 7.24v226.33c0 4-3.24 7.24-7.24 7.24h-392.9c-4 0-7.24-3.24-7.24-7.24v-226.33c0-4 3.24-7.24 7.24-7.24z"/>
				<path fill-rule="evenodd" class="s1" d="m1.82 226.13h393.05"/>
				<path fill-rule="evenodd" class="s2" d="m1.82 205.37h393.05"/>
				<path fill-rule="evenodd" class="s2" d="m1.82 185.29h393.05"/>
				<path fill-rule="evenodd" class="s2" d="m1.82 164.53h393.05"/>
				<path fill-rule="evenodd" class="s2" d="m1.82 143.77h393.05"/>
				<path fill-rule="evenodd" class="s2" d="m1.82 123.68h393.05"/>
				<path fill-rule="evenodd" class="s2" d="m1.82 102.92h393.05"/>
				<path fill-rule="evenodd" class="s2" d="m1.82 82.84h393.05"/>
				<path fill-rule="evenodd" class="s2" d="m1.82 62.08h393.05"/>
				<path fill-rule="evenodd" class="s2" d="m1.82 41.32h393.05"/>
				<path fill-rule="evenodd" class="s2" d="m1.82 21.23h393.05"/>
				<path fill-rule="evenodd" class="s1" d="m1.61 226.35v-212.27"/>
				<path fill-rule="evenodd" class="s2" d="m48.48 226.35v-204.9"/>
				<path fill-rule="evenodd" class="s2" d="m95.35 226.35v-204.9"/>
				<path fill-rule="evenodd" class="s2" d="m142.22 226.35v-204.9"/>
				<path fill-rule="evenodd" class="s2" d="m189.09 226.35v-204.9"/>
				<path fill-rule="evenodd" class="s2" d="m235.96 226.35v-204.9"/>
				<path fill-rule="evenodd" class="s2" d="m282.83 226.35v-204.9"/>
				<path fill-rule="evenodd" class="s2" d="m329.71 226.35v-204.9"/>
				<path fill-rule="evenodd" class="s2" d="m376.58 226.35v-204.9"/>
				<path class="s3" d="m48.69 213.62l-47.21 12.72h375.31v-193.51l-46.54 77.34-47.2 27.12-47.21 14.73-46.53 19.75-46.88 23.44-47.2 10.38z"/>
				<path class="s4" d="m1.48 226.34l47.21-12.72 46.54-8.03 47.2-10.38 46.88-23.44 46.53-19.75 47.21-14.73 47.21-27.12 46.53-77.34"/>
				<path class="s5" d="m48.02 220.99l-46.54 5.35h375.31v-202.21l-46.54 93.41-47.2-23.44-46.87 79.68-47.88 36.49-45.87-2.67-47.2 16.07z"/>
				<path class="s6" d="m1.48 226.34l46.54-5.35 47.21 2.68 47.2-16.07 45.87 2.67 47.88-36.49 46.87-79.68 47.21 23.44 46.53-93.41"/>
				<path class="s7" d="m48.69 199.56l-47.21 26.78h375.31v-173.42l-46.2 40.18-47.88-5.36-46.53 116.17-47.54-15.4-45.87-11.72-47.88 27.12z"/>
				<path class="s8" d="m1.48 226.34l47.21-26.78 46.2 4.35 47.88-27.12 45.87 11.72 47.54 15.4 46.53-116.17 47.88 5.36 46.2-40.18"/>
			</g>
		</g>
	</g>
</svg>