<svg width="491" height="348" viewBox="0 0 491 348" fill="none" xmlns="http://www.w3.org/2000/svg">
<g filter="url(#filter0_dddd_226_3627)">
<g clip-path="url(#clip0_226_3627)">
<rect x="60" y="12.5996" width="407.382" height="240.808" rx="7.24234" fill="white"/>
<line x1="74.8193" y1="239.131" x2="467.871" y2="239.131" stroke="#001545" stroke-opacity="0.22" stroke-width="0.428541"/>
<line x1="74.8193" y1="218.374" x2="467.871" y2="218.374" stroke="#001545" stroke-opacity="0.03" stroke-width="0.428541"/>
<line x1="74.8193" y1="198.286" x2="467.871" y2="198.286" stroke="#001545" stroke-opacity="0.03" stroke-width="0.428541"/>
<line x1="74.8193" y1="177.528" x2="467.871" y2="177.528" stroke="#001545" stroke-opacity="0.03" stroke-width="0.428541"/>
<line x1="74.8193" y1="156.77" x2="467.871" y2="156.77" stroke="#001545" stroke-opacity="0.03" stroke-width="0.428541"/>
<line x1="74.8193" y1="136.682" x2="467.871" y2="136.682" stroke="#001545" stroke-opacity="0.03" stroke-width="0.428541"/>
<line x1="74.8193" y1="115.924" x2="467.871" y2="115.924" stroke="#001545" stroke-opacity="0.03" stroke-width="0.428541"/>
<line x1="74.8193" y1="95.8365" x2="467.871" y2="95.8365" stroke="#001545" stroke-opacity="0.03" stroke-width="0.428541"/>
<line x1="74.8193" y1="75.0807" x2="467.871" y2="75.0807" stroke="#001545" stroke-opacity="0.03" stroke-width="0.428541"/>
<line x1="74.8193" y1="54.3228" x2="467.871" y2="54.3228" stroke="#001545" stroke-opacity="0.03" stroke-width="0.428541"/>
<line x1="74.8193" y1="34.2349" x2="467.871" y2="34.2349" stroke="#001545" stroke-opacity="0.03" stroke-width="0.428541"/>
<line x1="74.605" y1="239.346" x2="74.605" y2="27.0843" stroke="#001545" stroke-opacity="0.22" stroke-width="0.428541"/>
<line x1="121.477" y1="239.346" x2="121.477" y2="34.4498" stroke="#001545" stroke-opacity="0.03" stroke-width="0.428541"/>
<line x1="168.348" y1="239.346" x2="168.348" y2="34.4498" stroke="#001545" stroke-opacity="0.03" stroke-width="0.428541"/>
<line x1="215.22" y1="239.346" x2="215.22" y2="34.4498" stroke="#001545" stroke-opacity="0.03" stroke-width="0.428541"/>
<line x1="262.092" y1="239.346" x2="262.092" y2="34.4498" stroke="#001545" stroke-opacity="0.03" stroke-width="0.428541"/>
<line x1="308.963" y1="239.346" x2="308.963" y2="34.4498" stroke="#001545" stroke-opacity="0.03" stroke-width="0.428541"/>
<line x1="355.835" y1="239.346" x2="355.835" y2="34.4498" stroke="#001545" stroke-opacity="0.03" stroke-width="0.428541"/>
<line x1="402.706" y1="239.346" x2="402.706" y2="34.4498" stroke="#001545" stroke-opacity="0.03" stroke-width="0.428541"/>
<line x1="449.578" y1="239.346" x2="449.578" y2="34.4498" stroke="#001545" stroke-opacity="0.03" stroke-width="0.428541"/>
<path d="M121.691 226.622L74.4847 239.345H449.792V45.832L403.255 123.17L356.049 150.289L308.843 165.02L262.306 184.773L215.434 208.209L168.228 218.587L121.691 226.622Z" fill="url(#paint0_linear_226_3627)" fill-opacity="0.6"/>
<path d="M74.4847 239.345L121.691 226.623L168.228 218.587L215.434 208.209L262.306 184.773L308.843 165.02L356.049 150.289L403.256 123.17L449.792 45.832" stroke="#C1B752" stroke-width="0.857082"/>
<path d="M121.021 233.988L74.4847 239.344H449.792V37.127L403.255 130.535L356.049 107.1L309.178 186.781L261.301 223.274L215.434 220.596L168.228 236.666L121.021 233.988Z" fill="url(#paint1_linear_226_3627)" fill-opacity="0.6"/>
<path d="M74.4847 239.344L121.021 233.988L168.228 236.666L215.434 220.596L261.302 223.274L309.177 186.781L356.049 107.1L403.256 130.535L449.792 37.127" stroke="#32B356" stroke-width="0.857082"/>
<path d="M121.691 212.561L74.4847 239.345H449.792V65.9199L403.59 106.096L355.714 100.739L309.178 216.913L261.636 201.513L215.769 189.795L167.893 216.913L121.691 212.561Z" fill="url(#paint2_linear_226_3627)" fill-opacity="0.6"/>
<path d="M74.4847 239.345L121.691 212.561L167.893 216.913L215.769 189.795L261.636 201.513L309.177 216.913L355.714 100.739L403.59 106.096L449.792 65.9199" stroke="#39BECB" stroke-width="0.857082"/>
</g>
</g>
<defs>
<filter id="filter0_dddd_226_3627" x="-46.8245" y="0.830808" width="536.838" height="442.689" filterUnits="userSpaceOnUse" color-interpolation-filters="sRGB">
<feFlood flood-opacity="0" result="BackgroundImageFix"/>
<feColorMatrix in="SourceAlpha" type="matrix" values="0 0 0 0 0 0 0 0 0 0 0 0 0 0 0 0 0 0 127 0" result="hardAlpha"/>
<feOffset dx="-2.71588" dy="8.14763"/>
<feGaussianBlur stdDeviation="9.95822"/>
<feColorMatrix type="matrix" values="0 0 0 0 0 0 0 0 0 0 0 0 0 0 0 0 0 0 0.1 0"/>
<feBlend mode="normal" in2="BackgroundImageFix" result="effect1_dropShadow_226_3627"/>
<feColorMatrix in="SourceAlpha" type="matrix" values="0 0 0 0 0 0 0 0 0 0 0 0 0 0 0 0 0 0 127 0" result="hardAlpha"/>
<feOffset dx="-12.6741" dy="33.4958"/>
<feGaussianBlur stdDeviation="17.6532"/>
<feColorMatrix type="matrix" values="0 0 0 0 0 0 0 0 0 0 0 0 0 0 0 0 0 0 0.09 0"/>
<feBlend mode="normal" in2="effect1_dropShadow_226_3627" result="effect2_dropShadow_226_3627"/>
<feColorMatrix in="SourceAlpha" type="matrix" values="0 0 0 0 0 0 0 0 0 0 0 0 0 0 0 0 0 0 127 0" result="hardAlpha"/>
<feOffset dx="-28.0641" dy="75.1393"/>
<feGaussianBlur stdDeviation="23.9902"/>
<feColorMatrix type="matrix" values="0 0 0 0 0 0 0 0 0 0 0 0 0 0 0 0 0 0 0.05 0"/>
<feBlend mode="normal" in2="effect2_dropShadow_226_3627" result="effect3_dropShadow_226_3627"/>
<feColorMatrix in="SourceAlpha" type="matrix" values="0 0 0 0 0 0 0 0 0 0 0 0 0 0 0 0 0 0 127 0" result="hardAlpha"/>
<feOffset dx="-49.7911" dy="133.078"/>
<feGaussianBlur stdDeviation="28.5167"/>
<feColorMatrix type="matrix" values="0 0 0 0 0 0 0 0 0 0 0 0 0 0 0 0 0 0 0.01 0"/>
<feBlend mode="normal" in2="effect3_dropShadow_226_3627" result="effect4_dropShadow_226_3627"/>
<feBlend mode="normal" in="SourceGraphic" in2="effect4_dropShadow_226_3627" result="shape"/>
</filter>
<linearGradient id="paint0_linear_226_3627" x1="383.168" y1="106.096" x2="449.792" y2="239.345" gradientUnits="userSpaceOnUse">
<stop stop-color="#DCD69D"/>
<stop offset="1" stop-color="white" stop-opacity="0"/>
</linearGradient>
<linearGradient id="paint1_linear_226_3627" x1="353.036" y1="114.465" x2="449.792" y2="239.344" gradientUnits="userSpaceOnUse">
<stop stop-color="#9BE3AF"/>
<stop offset="1" stop-color="white" stop-opacity="0"/>
</linearGradient>
<linearGradient id="paint2_linear_226_3627" x1="396.894" y1="79.6466" x2="449.792" y2="239.345" gradientUnits="userSpaceOnUse">
<stop stop-color="#60CBD5"/>
<stop offset="1" stop-color="white" stop-opacity="0"/>
</linearGradient>
<clipPath id="clip0_226_3627">
<rect x="60" y="12.5996" width="407.382" height="240.808" rx="7.24234" fill="white"/>
</clipPath>
</defs>
</svg>
