<svg width="59" height="58" viewBox="0 0 59 58" fill="none" xmlns="http://www.w3.org/2000/svg">
<path d="M44.8468 19.6918C44.8467 18.117 44.2459 16.5421 43.0443 15.3406C41.8427 14.139 40.2678 13.5382 38.6929 13.5382M38.6929 38.1535C48.8889 38.1535 57.1545 29.888 57.1545 19.692C57.1545 9.49598 48.8889 1.23047 38.6929 1.23047C28.4969 1.23047 20.2314 9.49598 20.2314 19.692C20.2314 20.5341 20.2878 21.363 20.3969 22.1752C20.5765 23.511 20.6663 24.1789 20.6059 24.6015C20.5429 25.0417 20.4628 25.2789 20.2458 25.6671C20.0375 26.0397 19.6705 26.4067 18.9364 27.1408L3.21177 42.8655C2.67961 43.3976 2.41353 43.6637 2.22325 43.9742C2.05455 44.2495 1.93023 44.5496 1.85485 44.8636C1.76984 45.2177 1.76984 45.594 1.76984 46.3466V51.692C1.76984 53.4152 1.76984 54.2769 2.1052 54.9351C2.4002 55.514 2.87091 55.9847 3.44987 56.2797C4.10806 56.6151 4.96967 56.6151 6.69291 56.6151H14.0775V50.4612H20.2314V44.3074H26.3852L31.2441 39.4485C31.9782 38.7144 32.3452 38.3474 32.7178 38.1391C33.106 37.9222 33.3432 37.842 33.7834 37.779C34.206 37.7186 34.8739 37.8084 36.2097 37.988C37.0219 38.0972 37.8508 38.1535 38.6929 38.1535Z" stroke="#93C20A" stroke-width="2" stroke-linecap="round" stroke-linejoin="round"/>
</svg>
