<svg width="26" height="26" viewBox="0 0 26 26" fill="none" xmlns="http://www.w3.org/2000/svg">
<path d="M14.7844 8.74351C14.1166 9.21961 13.2993 9.49967 12.4166 9.49967C10.1615 9.49967 8.33331 7.6715 8.33331 5.41634C8.33331 3.16118 10.1615 1.33301 12.4166 1.33301C13.8785 1.33301 15.1609 2.10116 15.8822 3.25584M5.99998 22.4347H9.04532C9.44238 22.4347 9.83701 22.4819 10.2219 22.5764L13.4397 23.3584C14.1379 23.5285 14.8652 23.545 15.5707 23.408L19.1284 22.7158C20.0683 22.5327 20.9328 22.0827 21.6104 21.4236L24.1275 18.975C24.8464 18.2769 24.8464 17.1442 24.1275 16.4449C23.4803 15.8153 22.4555 15.7445 21.7233 16.2784L18.7897 18.4187C18.3695 18.7258 17.8583 18.8911 17.3326 18.8911H14.4997L16.3029 18.8911C17.3192 18.8911 18.1425 18.0902 18.1425 17.1016V16.7437C18.1425 15.9228 17.5681 15.207 16.7497 15.0085L13.9667 14.3317C13.5138 14.2219 13.0499 14.1663 12.5836 14.1663C11.458 14.1663 9.42052 15.0983 9.42052 15.0983L5.99998 16.5287M22.3333 6.58301C22.3333 8.83817 20.5051 10.6663 18.25 10.6663C15.9948 10.6663 14.1666 8.83817 14.1666 6.58301C14.1666 4.32784 15.9948 2.49967 18.25 2.49967C20.5051 2.49967 22.3333 4.32784 22.3333 6.58301ZM1.33331 16.033L1.33331 22.7997C1.33331 23.4531 1.33331 23.7798 1.46047 24.0293C1.57232 24.2488 1.7508 24.4273 1.97032 24.5392C2.21989 24.6663 2.54658 24.6663 3.19998 24.6663H4.13331C4.78671 24.6663 5.1134 24.6663 5.36297 24.5392C5.58249 24.4273 5.76097 24.2489 5.87282 24.0293C5.99998 23.7798 5.99998 23.4531 5.99998 22.7997V16.033C5.99998 15.3796 5.99998 15.0529 5.87282 14.8034C5.76097 14.5838 5.58249 14.4054 5.36297 14.2935C5.11341 14.1663 4.78671 14.1663 4.13331 14.1663L3.19998 14.1663C2.54659 14.1663 2.21989 14.1663 1.97032 14.2935C1.7508 14.4054 1.57232 14.5838 1.46047 14.8034C1.33331 15.0529 1.33331 15.3796 1.33331 16.033Z" stroke="#001545" stroke-linecap="round" stroke-linejoin="round"/>
</svg>
