<svg width="390" height="638" viewBox="0 0 390 638" fill="none" xmlns="http://www.w3.org/2000/svg">
<g filter="url(#filter0_f_226_16277)">
<path d="M160.046 415.169C28.1717 416.722 -90.9585 508.396 -134.039 554.039H-243V132.039H633L633 554.039H487.144C433.059 507.102 291.921 413.617 160.046 415.169Z" fill="#D5F870"/>
</g>
<g filter="url(#filter1_f_226_16277)">
<path d="M160.046 367.169C28.1717 368.722 -90.9585 460.396 -134.039 506.039H-243V84.0391H633L633 506.039H487.144C433.059 459.102 291.921 365.617 160.046 367.169Z" fill="url(#paint0_radial_226_16277)"/>
</g>
<mask id="mask0_226_16277" style="mask-type:alpha" maskUnits="userSpaceOnUse" x="-218" y="298" width="878" height="259">
<rect x="-217.594" y="298.73" width="876.828" height="257.568" fill="url(#paint1_linear_226_16277)"/>
</mask>
<g mask="url(#mask0_226_16277)">
<rect x="-22.5909" y="288.533" width="24.0519" height="24.0519" stroke="white" stroke-opacity="0.41" stroke-width="0.304454"/>
<rect x="1.76539" y="288.533" width="24.0519" height="24.0519" stroke="white" stroke-opacity="0.41" stroke-width="0.304454"/>
<rect x="26.1217" y="288.533" width="24.0519" height="24.0519" stroke="white" stroke-opacity="0.41" stroke-width="0.304454"/>
<rect x="50.478" y="288.533" width="24.0519" height="24.0519" stroke="white" stroke-opacity="0.41" stroke-width="0.304454"/>
<rect x="74.8344" y="288.533" width="24.0519" height="24.0519" stroke="white" stroke-opacity="0.41" stroke-width="0.304454"/>
<rect x="99.1907" y="288.533" width="24.0519" height="24.0519" stroke="white" stroke-opacity="0.41" stroke-width="0.304454"/>
<rect x="123.547" y="288.533" width="24.0519" height="24.0519" stroke="white" stroke-opacity="0.41" stroke-width="0.304454"/>
<rect x="147.903" y="288.533" width="24.0519" height="24.0519" stroke="white" stroke-opacity="0.41" stroke-width="0.304454"/>
<rect x="172.26" y="288.533" width="24.0519" height="24.0519" stroke="white" stroke-opacity="0.41" stroke-width="0.304454"/>
<rect x="196.616" y="288.533" width="24.0519" height="24.0519" stroke="white" stroke-opacity="0.41" stroke-width="0.304454"/>
<rect x="220.972" y="288.533" width="24.0519" height="24.0519" stroke="white" stroke-opacity="0.41" stroke-width="0.304454"/>
<rect x="245.329" y="288.533" width="24.0519" height="24.0519" stroke="white" stroke-opacity="0.41" stroke-width="0.304454"/>
<rect x="269.685" y="288.533" width="24.0519" height="24.0519" stroke="white" stroke-opacity="0.41" stroke-width="0.304454"/>
<rect x="294.041" y="288.533" width="24.0519" height="24.0519" stroke="white" stroke-opacity="0.41" stroke-width="0.304454"/>
<rect x="318.398" y="288.533" width="24.0519" height="24.0519" stroke="white" stroke-opacity="0.41" stroke-width="0.304454"/>
<rect x="342.754" y="288.533" width="24.0519" height="24.0519" stroke="white" stroke-opacity="0.41" stroke-width="0.304454"/>
<rect x="367.11" y="288.533" width="24.0519" height="24.0519" stroke="white" stroke-opacity="0.41" stroke-width="0.304454"/>
<rect x="-22.5909" y="312.889" width="24.0519" height="24.0519" stroke="white" stroke-opacity="0.41" stroke-width="0.304454"/>
<rect x="1.76539" y="312.889" width="24.0519" height="24.0519" stroke="white" stroke-opacity="0.41" stroke-width="0.304454"/>
<rect x="26.1217" y="312.889" width="24.0519" height="24.0519" stroke="white" stroke-opacity="0.41" stroke-width="0.304454"/>
<rect x="50.478" y="312.889" width="24.0519" height="24.0519" stroke="white" stroke-opacity="0.41" stroke-width="0.304454"/>
<rect x="74.8344" y="312.889" width="24.0519" height="24.0519" stroke="white" stroke-opacity="0.41" stroke-width="0.304454"/>
<rect x="99.1907" y="312.889" width="24.0519" height="24.0519" stroke="white" stroke-opacity="0.41" stroke-width="0.304454"/>
<rect x="123.547" y="312.889" width="24.0519" height="24.0519" stroke="white" stroke-opacity="0.41" stroke-width="0.304454"/>
<rect x="147.903" y="312.889" width="24.0519" height="24.0519" stroke="white" stroke-opacity="0.41" stroke-width="0.304454"/>
<rect x="172.26" y="312.889" width="24.0519" height="24.0519" stroke="white" stroke-opacity="0.41" stroke-width="0.304454"/>
<rect x="196.616" y="312.889" width="24.0519" height="24.0519" stroke="white" stroke-opacity="0.41" stroke-width="0.304454"/>
<rect x="220.972" y="312.889" width="24.0519" height="24.0519" stroke="white" stroke-opacity="0.41" stroke-width="0.304454"/>
<rect x="245.329" y="312.889" width="24.0519" height="24.0519" stroke="white" stroke-opacity="0.41" stroke-width="0.304454"/>
<rect x="269.685" y="312.889" width="24.0519" height="24.0519" stroke="white" stroke-opacity="0.41" stroke-width="0.304454"/>
<rect x="294.041" y="312.889" width="24.0519" height="24.0519" stroke="white" stroke-opacity="0.41" stroke-width="0.304454"/>
<rect x="318.398" y="312.889" width="24.0519" height="24.0519" stroke="white" stroke-opacity="0.41" stroke-width="0.304454"/>
<rect x="342.754" y="312.889" width="24.0519" height="24.0519" stroke="white" stroke-opacity="0.41" stroke-width="0.304454"/>
<rect x="367.11" y="312.889" width="24.0519" height="24.0519" stroke="white" stroke-opacity="0.41" stroke-width="0.304454"/>
<rect x="-22.5909" y="337.246" width="24.0519" height="24.0519" stroke="white" stroke-opacity="0.41" stroke-width="0.304454"/>
<rect x="1.76539" y="337.246" width="24.0519" height="24.0519" stroke="white" stroke-opacity="0.41" stroke-width="0.304454"/>
<rect x="26.1217" y="337.246" width="24.0519" height="24.0519" stroke="white" stroke-opacity="0.41" stroke-width="0.304454"/>
<rect x="50.478" y="337.246" width="24.0519" height="24.0519" stroke="white" stroke-opacity="0.41" stroke-width="0.304454"/>
<rect x="74.8344" y="337.246" width="24.0519" height="24.0519" stroke="white" stroke-opacity="0.41" stroke-width="0.304454"/>
<rect x="99.1907" y="337.246" width="24.0519" height="24.0519" stroke="white" stroke-opacity="0.41" stroke-width="0.304454"/>
<rect x="123.547" y="337.246" width="24.0519" height="24.0519" stroke="white" stroke-opacity="0.41" stroke-width="0.304454"/>
<rect x="147.903" y="337.246" width="24.0519" height="24.0519" stroke="white" stroke-opacity="0.41" stroke-width="0.304454"/>
<rect x="172.26" y="337.246" width="24.0519" height="24.0519" stroke="white" stroke-opacity="0.41" stroke-width="0.304454"/>
<rect x="196.616" y="337.246" width="24.0519" height="24.0519" stroke="white" stroke-opacity="0.41" stroke-width="0.304454"/>
<rect x="220.972" y="337.246" width="24.0519" height="24.0519" stroke="white" stroke-opacity="0.41" stroke-width="0.304454"/>
<rect x="245.329" y="337.246" width="24.0519" height="24.0519" stroke="white" stroke-opacity="0.41" stroke-width="0.304454"/>
<rect x="269.685" y="337.246" width="24.0519" height="24.0519" stroke="white" stroke-opacity="0.41" stroke-width="0.304454"/>
<rect x="294.041" y="337.246" width="24.0519" height="24.0519" stroke="white" stroke-opacity="0.41" stroke-width="0.304454"/>
<rect x="318.398" y="337.246" width="24.0519" height="24.0519" stroke="white" stroke-opacity="0.41" stroke-width="0.304454"/>
<rect x="342.754" y="337.246" width="24.0519" height="24.0519" stroke="white" stroke-opacity="0.41" stroke-width="0.304454"/>
<rect x="367.11" y="337.246" width="24.0519" height="24.0519" stroke="white" stroke-opacity="0.41" stroke-width="0.304454"/>
<rect x="-22.5909" y="361.601" width="24.0519" height="24.0519" stroke="white" stroke-opacity="0.41" stroke-width="0.304454"/>
<rect x="1.76539" y="361.601" width="24.0519" height="24.0519" stroke="white" stroke-opacity="0.41" stroke-width="0.304454"/>
<rect x="26.1217" y="361.601" width="24.0519" height="24.0519" stroke="white" stroke-opacity="0.41" stroke-width="0.304454"/>
<rect x="50.478" y="361.601" width="24.0519" height="24.0519" stroke="white" stroke-opacity="0.41" stroke-width="0.304454"/>
<rect x="74.8344" y="361.601" width="24.0519" height="24.0519" stroke="white" stroke-opacity="0.41" stroke-width="0.304454"/>
<rect x="99.1907" y="361.601" width="24.0519" height="24.0519" stroke="white" stroke-opacity="0.41" stroke-width="0.304454"/>
<rect x="123.547" y="361.601" width="24.0519" height="24.0519" stroke="white" stroke-opacity="0.41" stroke-width="0.304454"/>
<rect x="147.903" y="361.601" width="24.0519" height="24.0519" stroke="white" stroke-opacity="0.41" stroke-width="0.304454"/>
<rect x="172.26" y="361.601" width="24.0519" height="24.0519" stroke="white" stroke-opacity="0.41" stroke-width="0.304454"/>
<rect x="196.616" y="361.601" width="24.0519" height="24.0519" stroke="white" stroke-opacity="0.41" stroke-width="0.304454"/>
<rect x="220.972" y="361.601" width="24.0519" height="24.0519" stroke="white" stroke-opacity="0.41" stroke-width="0.304454"/>
<rect x="245.329" y="361.601" width="24.0519" height="24.0519" stroke="white" stroke-opacity="0.41" stroke-width="0.304454"/>
<rect x="269.685" y="361.601" width="24.0519" height="24.0519" stroke="white" stroke-opacity="0.41" stroke-width="0.304454"/>
<rect x="294.041" y="361.601" width="24.0519" height="24.0519" stroke="white" stroke-opacity="0.41" stroke-width="0.304454"/>
<rect x="318.398" y="361.601" width="24.0519" height="24.0519" stroke="white" stroke-opacity="0.41" stroke-width="0.304454"/>
<rect x="342.602" y="361.449" width="24.3563" height="24.3563" fill="white" fill-opacity="0.43"/>
<rect x="342.754" y="361.601" width="24.0519" height="24.0519" stroke="white" stroke-opacity="0.41" stroke-width="0.304454"/>
<rect x="367.11" y="361.601" width="24.0519" height="24.0519" stroke="white" stroke-opacity="0.41" stroke-width="0.304454"/>
<rect x="-22.5909" y="385.959" width="24.0519" height="24.0519" stroke="white" stroke-opacity="0.41" stroke-width="0.304454"/>
<rect x="1.61316" y="385.807" width="24.3563" height="24.3563" fill="white" fill-opacity="0.43"/>
<rect x="1.76539" y="385.959" width="24.0519" height="24.0519" stroke="white" stroke-opacity="0.41" stroke-width="0.304454"/>
<rect x="26.1217" y="385.959" width="24.0519" height="24.0519" stroke="white" stroke-opacity="0.41" stroke-width="0.304454"/>
<rect x="50.478" y="385.959" width="24.0519" height="24.0519" stroke="white" stroke-opacity="0.41" stroke-width="0.304454"/>
<rect x="74.8344" y="385.959" width="24.0519" height="24.0519" stroke="white" stroke-opacity="0.41" stroke-width="0.304454"/>
<rect x="99.1907" y="385.959" width="24.0519" height="24.0519" stroke="white" stroke-opacity="0.41" stroke-width="0.304454"/>
<rect x="123.547" y="385.959" width="24.0519" height="24.0519" stroke="white" stroke-opacity="0.41" stroke-width="0.304454"/>
<rect x="147.903" y="385.959" width="24.0519" height="24.0519" stroke="white" stroke-opacity="0.41" stroke-width="0.304454"/>
<rect x="172.26" y="385.959" width="24.0519" height="24.0519" stroke="white" stroke-opacity="0.41" stroke-width="0.304454"/>
<rect x="196.616" y="385.959" width="24.0519" height="24.0519" stroke="white" stroke-opacity="0.41" stroke-width="0.304454"/>
<rect x="220.972" y="385.959" width="24.0519" height="24.0519" stroke="white" stroke-opacity="0.41" stroke-width="0.304454"/>
<rect x="245.329" y="385.959" width="24.0519" height="24.0519" stroke="white" stroke-opacity="0.41" stroke-width="0.304454"/>
<rect x="269.685" y="385.959" width="24.0519" height="24.0519" stroke="white" stroke-opacity="0.41" stroke-width="0.304454"/>
<rect x="294.041" y="385.959" width="24.0519" height="24.0519" stroke="white" stroke-opacity="0.41" stroke-width="0.304454"/>
<rect x="318.398" y="385.959" width="24.0519" height="24.0519" stroke="white" stroke-opacity="0.41" stroke-width="0.304454"/>
<rect x="342.754" y="385.959" width="24.0519" height="24.0519" stroke="white" stroke-opacity="0.41" stroke-width="0.304454"/>
<rect x="367.11" y="385.959" width="24.0519" height="24.0519" stroke="white" stroke-opacity="0.41" stroke-width="0.304454"/>
<rect x="-22.5909" y="410.314" width="24.0519" height="24.0519" stroke="white" stroke-opacity="0.41" stroke-width="0.304454"/>
<rect x="1.76539" y="410.314" width="24.0519" height="24.0519" stroke="white" stroke-opacity="0.41" stroke-width="0.304454"/>
<rect x="26.1217" y="410.314" width="24.0519" height="24.0519" stroke="white" stroke-opacity="0.41" stroke-width="0.304454"/>
<rect x="50.478" y="410.314" width="24.0519" height="24.0519" stroke="white" stroke-opacity="0.41" stroke-width="0.304454"/>
<rect x="74.8344" y="410.314" width="24.0519" height="24.0519" stroke="white" stroke-opacity="0.41" stroke-width="0.304454"/>
<rect x="99.1907" y="410.314" width="24.0519" height="24.0519" stroke="white" stroke-opacity="0.41" stroke-width="0.304454"/>
<rect x="123.547" y="410.314" width="24.0519" height="24.0519" stroke="white" stroke-opacity="0.41" stroke-width="0.304454"/>
<rect x="147.903" y="410.314" width="24.0519" height="24.0519" stroke="white" stroke-opacity="0.41" stroke-width="0.304454"/>
<rect x="172.26" y="410.314" width="24.0519" height="24.0519" stroke="white" stroke-opacity="0.41" stroke-width="0.304454"/>
<rect x="196.616" y="410.314" width="24.0519" height="24.0519" stroke="white" stroke-opacity="0.41" stroke-width="0.304454"/>
<rect x="220.972" y="410.314" width="24.0519" height="24.0519" stroke="white" stroke-opacity="0.41" stroke-width="0.304454"/>
<rect x="245.329" y="410.314" width="24.0519" height="24.0519" stroke="white" stroke-opacity="0.41" stroke-width="0.304454"/>
<rect x="269.685" y="410.314" width="24.0519" height="24.0519" stroke="white" stroke-opacity="0.41" stroke-width="0.304454"/>
<rect x="294.041" y="410.314" width="24.0519" height="24.0519" stroke="white" stroke-opacity="0.41" stroke-width="0.304454"/>
<rect x="318.398" y="410.314" width="24.0519" height="24.0519" stroke="white" stroke-opacity="0.41" stroke-width="0.304454"/>
<rect x="342.754" y="410.314" width="24.0519" height="24.0519" stroke="white" stroke-opacity="0.41" stroke-width="0.304454"/>
<rect x="366.958" y="410.162" width="24.3563" height="24.3563" fill="white" fill-opacity="0.43"/>
<rect x="367.11" y="410.314" width="24.0519" height="24.0519" stroke="white" stroke-opacity="0.41" stroke-width="0.304454"/>
<rect x="-22.5912" y="434.672" width="24.0519" height="24.0519" stroke="white" stroke-opacity="0.41" stroke-width="0.304454"/>
<rect x="1.76539" y="434.672" width="24.0519" height="24.0519" stroke="white" stroke-opacity="0.41" stroke-width="0.304454"/>
<rect x="26.1218" y="434.672" width="24.0519" height="24.0519" stroke="white" stroke-opacity="0.41" stroke-width="0.304454"/>
<rect x="50.478" y="434.672" width="24.0519" height="24.0519" stroke="white" stroke-opacity="0.41" stroke-width="0.304454"/>
<rect x="74.8344" y="434.672" width="24.0519" height="24.0519" stroke="white" stroke-opacity="0.41" stroke-width="0.304454"/>
<rect x="99.1907" y="434.672" width="24.0519" height="24.0519" stroke="white" stroke-opacity="0.41" stroke-width="0.304454"/>
<rect x="123.547" y="434.672" width="24.0519" height="24.0519" stroke="white" stroke-opacity="0.41" stroke-width="0.304454"/>
<rect x="147.903" y="434.672" width="24.0519" height="24.0519" stroke="white" stroke-opacity="0.41" stroke-width="0.304454"/>
<rect x="172.26" y="434.672" width="24.0519" height="24.0519" stroke="white" stroke-opacity="0.41" stroke-width="0.304454"/>
<rect x="196.616" y="434.672" width="24.0519" height="24.0519" stroke="white" stroke-opacity="0.41" stroke-width="0.304454"/>
<rect x="220.972" y="434.672" width="24.0519" height="24.0519" stroke="white" stroke-opacity="0.41" stroke-width="0.304454"/>
<rect x="245.329" y="434.672" width="24.0519" height="24.0519" stroke="white" stroke-opacity="0.41" stroke-width="0.304454"/>
<rect x="269.685" y="434.672" width="24.0519" height="24.0519" stroke="white" stroke-opacity="0.41" stroke-width="0.304454"/>
<rect x="293.889" y="434.52" width="24.3563" height="24.3563" fill="white" fill-opacity="0.25"/>
<rect x="294.041" y="434.672" width="24.0519" height="24.0519" stroke="white" stroke-opacity="0.41" stroke-width="0.304454"/>
<rect x="318.398" y="434.672" width="24.0519" height="24.0519" stroke="white" stroke-opacity="0.41" stroke-width="0.304454"/>
<rect x="342.754" y="434.672" width="24.0519" height="24.0519" stroke="white" stroke-opacity="0.41" stroke-width="0.304454"/>
<rect x="367.11" y="434.672" width="24.0519" height="24.0519" stroke="white" stroke-opacity="0.41" stroke-width="0.304454"/>
<rect x="-22.5909" y="459.027" width="24.0519" height="24.0519" stroke="white" stroke-opacity="0.41" stroke-width="0.304454"/>
<rect x="1.76539" y="459.027" width="24.0519" height="24.0519" stroke="white" stroke-opacity="0.41" stroke-width="0.304454"/>
<rect x="25.9695" y="458.875" width="24.3563" height="24.3563" fill="white" fill-opacity="0.33"/>
<rect x="26.1217" y="459.027" width="24.0519" height="24.0519" stroke="white" stroke-opacity="0.41" stroke-width="0.304454"/>
<rect x="50.478" y="459.027" width="24.0519" height="24.0519" stroke="white" stroke-opacity="0.41" stroke-width="0.304454"/>
<rect x="74.8344" y="459.027" width="24.0519" height="24.0519" stroke="white" stroke-opacity="0.41" stroke-width="0.304454"/>
<rect x="99.1907" y="459.027" width="24.0519" height="24.0519" stroke="white" stroke-opacity="0.41" stroke-width="0.304454"/>
<rect x="123.547" y="459.027" width="24.0519" height="24.0519" stroke="white" stroke-opacity="0.41" stroke-width="0.304454"/>
<rect x="147.903" y="459.027" width="24.0519" height="24.0519" stroke="white" stroke-opacity="0.41" stroke-width="0.304454"/>
<rect x="172.26" y="459.027" width="24.0519" height="24.0519" stroke="white" stroke-opacity="0.41" stroke-width="0.304454"/>
<rect x="196.464" y="458.875" width="24.3563" height="24.3563" fill="white" fill-opacity="0.33"/>
<rect x="196.616" y="459.027" width="24.0519" height="24.0519" stroke="white" stroke-opacity="0.41" stroke-width="0.304454"/>
<rect x="220.972" y="459.027" width="24.0519" height="24.0519" stroke="white" stroke-opacity="0.41" stroke-width="0.304454"/>
<rect x="245.329" y="459.027" width="24.0519" height="24.0519" stroke="white" stroke-opacity="0.41" stroke-width="0.304454"/>
<rect x="269.685" y="459.027" width="24.0519" height="24.0519" stroke="white" stroke-opacity="0.41" stroke-width="0.304454"/>
<rect x="294.041" y="459.027" width="24.0519" height="24.0519" stroke="white" stroke-opacity="0.41" stroke-width="0.304454"/>
<rect x="318.398" y="459.027" width="24.0519" height="24.0519" stroke="white" stroke-opacity="0.41" stroke-width="0.304454"/>
<rect x="342.754" y="459.027" width="24.0519" height="24.0519" stroke="white" stroke-opacity="0.41" stroke-width="0.304454"/>
<rect x="367.11" y="459.027" width="24.0519" height="24.0519" stroke="white" stroke-opacity="0.41" stroke-width="0.304454"/>
<rect x="-22.5912" y="483.385" width="24.0519" height="24.0519" stroke="white" stroke-opacity="0.41" stroke-width="0.304454"/>
<rect x="1.76539" y="483.385" width="24.0519" height="24.0519" stroke="white" stroke-opacity="0.41" stroke-width="0.304454"/>
<rect x="26.1218" y="483.385" width="24.0519" height="24.0519" stroke="white" stroke-opacity="0.41" stroke-width="0.304454"/>
<rect x="50.478" y="483.385" width="24.0519" height="24.0519" stroke="white" stroke-opacity="0.41" stroke-width="0.304454"/>
<rect x="74.6821" y="483.232" width="24.3563" height="24.3563" fill="white" fill-opacity="0.25"/>
<rect x="74.8344" y="483.385" width="24.0519" height="24.0519" stroke="white" stroke-opacity="0.41" stroke-width="0.304454"/>
<rect x="99.1907" y="483.385" width="24.0519" height="24.0519" stroke="white" stroke-opacity="0.41" stroke-width="0.304454"/>
<rect x="123.547" y="483.385" width="24.0519" height="24.0519" stroke="white" stroke-opacity="0.41" stroke-width="0.304454"/>
<rect x="147.751" y="483.232" width="24.3563" height="24.3563" fill="white" fill-opacity="0.25"/>
<rect x="147.903" y="483.385" width="24.0519" height="24.0519" stroke="white" stroke-opacity="0.41" stroke-width="0.304454"/>
<rect x="172.26" y="483.385" width="24.0519" height="24.0519" stroke="white" stroke-opacity="0.41" stroke-width="0.304454"/>
<rect x="196.616" y="483.385" width="24.0519" height="24.0519" stroke="white" stroke-opacity="0.41" stroke-width="0.304454"/>
<rect x="220.972" y="483.385" width="24.0519" height="24.0519" stroke="white" stroke-opacity="0.41" stroke-width="0.304454"/>
<rect x="245.329" y="483.385" width="24.0519" height="24.0519" stroke="white" stroke-opacity="0.41" stroke-width="0.304454"/>
<rect x="269.685" y="483.385" width="24.0519" height="24.0519" stroke="white" stroke-opacity="0.41" stroke-width="0.304454"/>
<rect x="294.041" y="483.385" width="24.0519" height="24.0519" stroke="white" stroke-opacity="0.41" stroke-width="0.304454"/>
<rect x="318.398" y="483.385" width="24.0519" height="24.0519" stroke="white" stroke-opacity="0.41" stroke-width="0.304454"/>
<rect x="342.754" y="483.385" width="24.0519" height="24.0519" stroke="white" stroke-opacity="0.41" stroke-width="0.304454"/>
<rect x="366.958" y="483.232" width="24.3563" height="24.3563" fill="white" fill-opacity="0.25"/>
<rect x="367.11" y="483.385" width="24.0519" height="24.0519" stroke="white" stroke-opacity="0.41" stroke-width="0.304454"/>
<rect x="-22.5909" y="507.74" width="24.0519" height="24.0519" stroke="white" stroke-opacity="0.41" stroke-width="0.304454"/>
<rect x="1.61316" y="507.588" width="24.3563" height="24.3563" fill="white" fill-opacity="0.25"/>
<rect x="1.76539" y="507.74" width="24.0519" height="24.0519" stroke="white" stroke-opacity="0.41" stroke-width="0.304454"/>
<rect x="26.1217" y="507.74" width="24.0519" height="24.0519" stroke="white" stroke-opacity="0.41" stroke-width="0.304454"/>
<rect x="50.478" y="507.74" width="24.0519" height="24.0519" stroke="white" stroke-opacity="0.41" stroke-width="0.304454"/>
<rect x="74.8344" y="507.74" width="24.0519" height="24.0519" stroke="white" stroke-opacity="0.41" stroke-width="0.304454"/>
<rect x="99.1907" y="507.74" width="24.0519" height="24.0519" stroke="white" stroke-opacity="0.41" stroke-width="0.304454"/>
<rect x="123.547" y="507.74" width="24.0519" height="24.0519" stroke="white" stroke-opacity="0.41" stroke-width="0.304454"/>
<rect x="147.903" y="507.74" width="24.0519" height="24.0519" stroke="white" stroke-opacity="0.41" stroke-width="0.304454"/>
<rect x="172.107" y="507.588" width="24.3563" height="24.3563" fill="white" fill-opacity="0.25"/>
<rect x="172.26" y="507.74" width="24.0519" height="24.0519" stroke="white" stroke-opacity="0.41" stroke-width="0.304454"/>
<rect x="196.616" y="507.74" width="24.0519" height="24.0519" stroke="white" stroke-opacity="0.41" stroke-width="0.304454"/>
<rect x="220.972" y="507.74" width="24.0519" height="24.0519" stroke="white" stroke-opacity="0.41" stroke-width="0.304454"/>
<rect x="245.176" y="507.588" width="24.3563" height="24.3563" fill="white" fill-opacity="0.25"/>
<rect x="245.329" y="507.74" width="24.0519" height="24.0519" stroke="white" stroke-opacity="0.41" stroke-width="0.304454"/>
<rect x="269.685" y="507.74" width="24.0519" height="24.0519" stroke="white" stroke-opacity="0.41" stroke-width="0.304454"/>
<rect x="294.041" y="507.74" width="24.0519" height="24.0519" stroke="white" stroke-opacity="0.41" stroke-width="0.304454"/>
<rect x="318.245" y="507.588" width="24.3563" height="24.3563" fill="white" fill-opacity="0.25"/>
<rect x="318.398" y="507.74" width="24.0519" height="24.0519" stroke="white" stroke-opacity="0.41" stroke-width="0.304454"/>
<rect x="342.754" y="507.74" width="24.0519" height="24.0519" stroke="white" stroke-opacity="0.41" stroke-width="0.304454"/>
<rect x="367.11" y="507.74" width="24.0519" height="24.0519" stroke="white" stroke-opacity="0.41" stroke-width="0.304454"/>
<rect x="-22.5912" y="532.096" width="24.0519" height="24.0519" stroke="white" stroke-opacity="0.41" stroke-width="0.304454"/>
<rect x="1.76539" y="532.096" width="24.0519" height="24.0519" stroke="white" stroke-opacity="0.41" stroke-width="0.304454"/>
<rect x="26.1218" y="532.096" width="24.0519" height="24.0519" stroke="white" stroke-opacity="0.41" stroke-width="0.304454"/>
<rect x="50.478" y="532.096" width="24.0519" height="24.0519" stroke="white" stroke-opacity="0.41" stroke-width="0.304454"/>
<rect x="74.8344" y="532.096" width="24.0519" height="24.0519" stroke="white" stroke-opacity="0.41" stroke-width="0.304454"/>
<rect x="99.1907" y="532.096" width="24.0519" height="24.0519" stroke="white" stroke-opacity="0.41" stroke-width="0.304454"/>
<rect x="123.395" y="531.943" width="24.3563" height="24.3563" fill="white" fill-opacity="0.25"/>
<rect x="123.547" y="532.096" width="24.0519" height="24.0519" stroke="white" stroke-opacity="0.41" stroke-width="0.304454"/>
<rect x="147.903" y="532.096" width="24.0519" height="24.0519" stroke="white" stroke-opacity="0.41" stroke-width="0.304454"/>
<rect x="172.26" y="532.096" width="24.0519" height="24.0519" stroke="white" stroke-opacity="0.41" stroke-width="0.304454"/>
<rect x="196.616" y="532.096" width="24.0519" height="24.0519" stroke="white" stroke-opacity="0.41" stroke-width="0.304454"/>
<rect x="220.972" y="532.096" width="24.0519" height="24.0519" stroke="white" stroke-opacity="0.41" stroke-width="0.304454"/>
<rect x="245.329" y="532.096" width="24.0519" height="24.0519" stroke="white" stroke-opacity="0.41" stroke-width="0.304454"/>
<rect x="269.685" y="532.096" width="24.0519" height="24.0519" stroke="white" stroke-opacity="0.41" stroke-width="0.304454"/>
<rect x="294.041" y="532.096" width="24.0519" height="24.0519" stroke="white" stroke-opacity="0.41" stroke-width="0.304454"/>
<rect x="318.398" y="532.096" width="24.0519" height="24.0519" stroke="white" stroke-opacity="0.41" stroke-width="0.304454"/>
<rect x="342.754" y="532.096" width="24.0519" height="24.0519" stroke="white" stroke-opacity="0.41" stroke-width="0.304454"/>
<rect x="367.11" y="532.096" width="24.0519" height="24.0519" stroke="white" stroke-opacity="0.41" stroke-width="0.304454"/>
</g>
<defs>
<filter id="filter0_f_226_16277" x="-326.917" y="48.1218" width="1043.83" height="589.834" filterUnits="userSpaceOnUse" color-interpolation-filters="sRGB">
<feFlood flood-opacity="0" result="BackgroundImageFix"/>
<feBlend mode="normal" in="SourceGraphic" in2="BackgroundImageFix" result="shape"/>
<feGaussianBlur stdDeviation="41.9586" result="effect1_foregroundBlur_226_16277"/>
</filter>
<filter id="filter1_f_226_16277" x="-326.917" y="0.121819" width="1043.83" height="589.834" filterUnits="userSpaceOnUse" color-interpolation-filters="sRGB">
<feFlood flood-opacity="0" result="BackgroundImageFix"/>
<feBlend mode="normal" in="SourceGraphic" in2="BackgroundImageFix" result="shape"/>
<feGaussianBlur stdDeviation="41.9586" result="effect1_foregroundBlur_226_16277"/>
</filter>
<radialGradient id="paint0_radial_226_16277" cx="0" cy="0" r="1" gradientUnits="userSpaceOnUse" gradientTransform="translate(195.216 174.391) rotate(90) scale(477.203 4523.83)">
<stop offset="0.264423" stop-color="white"/>
<stop offset="1" stop-color="#94F870"/>
</radialGradient>
<linearGradient id="paint1_linear_226_16277" x1="220.82" y1="298.73" x2="220.82" y2="556.299" gradientUnits="userSpaceOnUse">
<stop stop-color="#D9D9D9" stop-opacity="0"/>
<stop offset="0.461538" stop-color="#737373"/>
<stop offset="0.831731" stop-color="#737373"/>
<stop offset="1" stop-color="#737373" stop-opacity="0"/>
</linearGradient>
</defs>
</svg>
