<svg width="1440" height="1117" viewBox="0 0 1440 1117" fill="none" xmlns="http://www.w3.org/2000/svg">
<g filter="url(#filter0_f_226_1711)">
<path d="M682 638.5C376.4 642.1 100.333 854.667 0.5 960.5H-252V-18H1778L1778 960.5H1440C1314.67 851.667 987.6 634.9 682 638.5Z" fill="#D5F870"/>
</g>
<g filter="url(#filter1_f_226_1711)">
<path d="M682 527.5C376.4 531.1 100.333 743.667 0.5 849.5H-252V-129H1778L1778 849.5H1440C1314.67 740.667 987.6 523.9 682 527.5Z" fill="url(#paint0_radial_226_1711)"/>
</g>
<mask id="mask0_226_1711" style="mask-type:alpha" maskUnits="userSpaceOnUse" x="-4" y="378" width="1630" height="479">
<rect x="-3.99994" y="378" width="1630" height="478.812" fill="url(#paint1_linear_226_1711)"/>
</mask>
<g mask="url(#mask0_226_1711)">
<rect x="-3.71695" y="359.041" width="44.7118" height="44.7118" stroke="white" stroke-opacity="0.41" stroke-width="0.565972"/>
<rect x="41.5608" y="359.041" width="44.7118" height="44.7118" stroke="white" stroke-opacity="0.41" stroke-width="0.565972"/>
<rect x="86.8386" y="359.041" width="44.7118" height="44.7118" stroke="white" stroke-opacity="0.41" stroke-width="0.565972"/>
<rect x="132.116" y="359.041" width="44.7118" height="44.7118" stroke="white" stroke-opacity="0.41" stroke-width="0.565972"/>
<rect x="177.394" y="359.041" width="44.7118" height="44.7118" stroke="white" stroke-opacity="0.41" stroke-width="0.565972"/>
<rect x="222.672" y="359.041" width="44.7118" height="44.7118" stroke="white" stroke-opacity="0.41" stroke-width="0.565972"/>
<rect x="267.95" y="359.041" width="44.7118" height="44.7118" stroke="white" stroke-opacity="0.41" stroke-width="0.565972"/>
<rect x="313.228" y="359.041" width="44.7118" height="44.7118" stroke="white" stroke-opacity="0.41" stroke-width="0.565972"/>
<rect x="358.505" y="359.041" width="44.7118" height="44.7118" stroke="white" stroke-opacity="0.41" stroke-width="0.565972"/>
<rect x="403.783" y="359.041" width="44.7118" height="44.7118" stroke="white" stroke-opacity="0.41" stroke-width="0.565972"/>
<rect x="449.061" y="359.041" width="44.7118" height="44.7118" stroke="white" stroke-opacity="0.41" stroke-width="0.565972"/>
<rect x="494.339" y="359.041" width="44.7118" height="44.7118" stroke="white" stroke-opacity="0.41" stroke-width="0.565972"/>
<rect x="539.616" y="359.041" width="44.7118" height="44.7118" stroke="white" stroke-opacity="0.41" stroke-width="0.565972"/>
<rect x="584.894" y="359.041" width="44.7118" height="44.7118" stroke="white" stroke-opacity="0.41" stroke-width="0.565972"/>
<rect x="630.172" y="359.041" width="44.7118" height="44.7118" stroke="white" stroke-opacity="0.41" stroke-width="0.565972"/>
<rect x="675.45" y="359.041" width="44.7118" height="44.7118" stroke="white" stroke-opacity="0.41" stroke-width="0.565972"/>
<rect x="720.727" y="359.041" width="44.7118" height="44.7118" stroke="white" stroke-opacity="0.41" stroke-width="0.565972"/>
<rect x="766.005" y="359.041" width="44.7118" height="44.7118" stroke="white" stroke-opacity="0.41" stroke-width="0.565972"/>
<rect x="811.283" y="359.041" width="44.7118" height="44.7118" stroke="white" stroke-opacity="0.41" stroke-width="0.565972"/>
<rect x="856.561" y="359.041" width="44.7118" height="44.7118" stroke="white" stroke-opacity="0.41" stroke-width="0.565972"/>
<rect x="901.838" y="359.041" width="44.7118" height="44.7118" stroke="white" stroke-opacity="0.41" stroke-width="0.565972"/>
<rect x="947.116" y="359.041" width="44.7118" height="44.7118" stroke="white" stroke-opacity="0.41" stroke-width="0.565972"/>
<rect x="992.394" y="359.041" width="44.7118" height="44.7118" stroke="white" stroke-opacity="0.41" stroke-width="0.565972"/>
<rect x="1037.67" y="359.041" width="44.7118" height="44.7118" stroke="white" stroke-opacity="0.41" stroke-width="0.565972"/>
<rect x="1082.95" y="359.041" width="44.7118" height="44.7118" stroke="white" stroke-opacity="0.41" stroke-width="0.565972"/>
<rect x="1128.23" y="359.041" width="44.7118" height="44.7118" stroke="white" stroke-opacity="0.41" stroke-width="0.565972"/>
<rect x="1173.5" y="359.041" width="44.7118" height="44.7118" stroke="white" stroke-opacity="0.41" stroke-width="0.565972"/>
<rect x="1218.78" y="359.041" width="44.7118" height="44.7118" stroke="white" stroke-opacity="0.41" stroke-width="0.565972"/>
<rect x="1264.06" y="359.041" width="44.7118" height="44.7118" stroke="white" stroke-opacity="0.41" stroke-width="0.565972"/>
<rect x="1309.34" y="359.041" width="44.7118" height="44.7118" stroke="white" stroke-opacity="0.41" stroke-width="0.565972"/>
<rect x="1354.62" y="359.041" width="44.7118" height="44.7118" stroke="white" stroke-opacity="0.41" stroke-width="0.565972"/>
<rect x="1399.89" y="359.041" width="44.7118" height="44.7118" stroke="white" stroke-opacity="0.41" stroke-width="0.565972"/>
<rect x="-3.71695" y="404.318" width="44.7118" height="44.7118" stroke="white" stroke-opacity="0.41" stroke-width="0.565972"/>
<rect x="41.5608" y="404.318" width="44.7118" height="44.7118" stroke="white" stroke-opacity="0.41" stroke-width="0.565972"/>
<rect x="86.8386" y="404.318" width="44.7118" height="44.7118" stroke="white" stroke-opacity="0.41" stroke-width="0.565972"/>
<rect x="132.116" y="404.318" width="44.7118" height="44.7118" stroke="white" stroke-opacity="0.41" stroke-width="0.565972"/>
<rect x="177.394" y="404.318" width="44.7118" height="44.7118" stroke="white" stroke-opacity="0.41" stroke-width="0.565972"/>
<rect x="222.672" y="404.318" width="44.7118" height="44.7118" stroke="white" stroke-opacity="0.41" stroke-width="0.565972"/>
<rect x="267.95" y="404.318" width="44.7118" height="44.7118" stroke="white" stroke-opacity="0.41" stroke-width="0.565972"/>
<rect x="313.228" y="404.318" width="44.7118" height="44.7118" stroke="white" stroke-opacity="0.41" stroke-width="0.565972"/>
<rect x="358.505" y="404.318" width="44.7118" height="44.7118" stroke="white" stroke-opacity="0.41" stroke-width="0.565972"/>
<rect x="403.783" y="404.318" width="44.7118" height="44.7118" stroke="white" stroke-opacity="0.41" stroke-width="0.565972"/>
<rect x="449.061" y="404.318" width="44.7118" height="44.7118" stroke="white" stroke-opacity="0.41" stroke-width="0.565972"/>
<rect x="494.339" y="404.318" width="44.7118" height="44.7118" stroke="white" stroke-opacity="0.41" stroke-width="0.565972"/>
<rect x="539.616" y="404.318" width="44.7118" height="44.7118" stroke="white" stroke-opacity="0.41" stroke-width="0.565972"/>
<rect x="584.894" y="404.318" width="44.7118" height="44.7118" stroke="white" stroke-opacity="0.41" stroke-width="0.565972"/>
<rect x="630.172" y="404.318" width="44.7118" height="44.7118" stroke="white" stroke-opacity="0.41" stroke-width="0.565972"/>
<rect x="675.45" y="404.318" width="44.7118" height="44.7118" stroke="white" stroke-opacity="0.41" stroke-width="0.565972"/>
<rect x="720.727" y="404.318" width="44.7118" height="44.7118" stroke="white" stroke-opacity="0.41" stroke-width="0.565972"/>
<rect x="766.005" y="404.318" width="44.7118" height="44.7118" stroke="white" stroke-opacity="0.41" stroke-width="0.565972"/>
<rect x="811.283" y="404.318" width="44.7118" height="44.7118" stroke="white" stroke-opacity="0.41" stroke-width="0.565972"/>
<rect x="856.561" y="404.318" width="44.7118" height="44.7118" stroke="white" stroke-opacity="0.41" stroke-width="0.565972"/>
<rect x="901.839" y="404.318" width="44.7118" height="44.7118" stroke="white" stroke-opacity="0.41" stroke-width="0.565972"/>
<rect x="947.116" y="404.318" width="44.7118" height="44.7118" stroke="white" stroke-opacity="0.41" stroke-width="0.565972"/>
<rect x="992.394" y="404.318" width="44.7118" height="44.7118" stroke="white" stroke-opacity="0.41" stroke-width="0.565972"/>
<rect x="1037.67" y="404.318" width="44.7118" height="44.7118" stroke="white" stroke-opacity="0.41" stroke-width="0.565972"/>
<rect x="1082.95" y="404.318" width="44.7118" height="44.7118" stroke="white" stroke-opacity="0.41" stroke-width="0.565972"/>
<rect x="1128.23" y="404.318" width="44.7118" height="44.7118" stroke="white" stroke-opacity="0.41" stroke-width="0.565972"/>
<rect x="1173.51" y="404.318" width="44.7118" height="44.7118" stroke="white" stroke-opacity="0.41" stroke-width="0.565972"/>
<rect x="1218.78" y="404.318" width="44.7118" height="44.7118" stroke="white" stroke-opacity="0.41" stroke-width="0.565972"/>
<rect x="1264.06" y="404.318" width="44.7118" height="44.7118" stroke="white" stroke-opacity="0.41" stroke-width="0.565972"/>
<rect x="1309.34" y="404.318" width="44.7118" height="44.7118" stroke="white" stroke-opacity="0.41" stroke-width="0.565972"/>
<rect x="1354.62" y="404.318" width="44.7118" height="44.7118" stroke="white" stroke-opacity="0.41" stroke-width="0.565972"/>
<rect x="1399.89" y="404.318" width="44.7118" height="44.7118" stroke="white" stroke-opacity="0.41" stroke-width="0.565972"/>
<rect x="-3.71695" y="449.595" width="44.7118" height="44.7118" stroke="white" stroke-opacity="0.41" stroke-width="0.565972"/>
<rect x="41.5608" y="449.595" width="44.7118" height="44.7118" stroke="white" stroke-opacity="0.41" stroke-width="0.565972"/>
<rect x="86.8385" y="449.595" width="44.7118" height="44.7118" stroke="white" stroke-opacity="0.41" stroke-width="0.565972"/>
<rect x="132.116" y="449.595" width="44.7118" height="44.7118" stroke="white" stroke-opacity="0.41" stroke-width="0.565972"/>
<rect x="177.394" y="449.595" width="44.7118" height="44.7118" stroke="white" stroke-opacity="0.41" stroke-width="0.565972"/>
<rect x="222.672" y="449.595" width="44.7118" height="44.7118" stroke="white" stroke-opacity="0.41" stroke-width="0.565972"/>
<rect x="267.95" y="449.595" width="44.7118" height="44.7118" stroke="white" stroke-opacity="0.41" stroke-width="0.565972"/>
<rect x="313.228" y="449.595" width="44.7118" height="44.7118" stroke="white" stroke-opacity="0.41" stroke-width="0.565972"/>
<rect x="358.505" y="449.595" width="44.7118" height="44.7118" stroke="white" stroke-opacity="0.41" stroke-width="0.565972"/>
<rect x="403.783" y="449.595" width="44.7118" height="44.7118" stroke="white" stroke-opacity="0.41" stroke-width="0.565972"/>
<rect x="449.061" y="449.595" width="44.7118" height="44.7118" stroke="white" stroke-opacity="0.41" stroke-width="0.565972"/>
<rect x="494.339" y="449.595" width="44.7118" height="44.7118" stroke="white" stroke-opacity="0.41" stroke-width="0.565972"/>
<rect x="539.617" y="449.595" width="44.7118" height="44.7118" stroke="white" stroke-opacity="0.41" stroke-width="0.565972"/>
<rect x="584.894" y="449.595" width="44.7118" height="44.7118" stroke="white" stroke-opacity="0.41" stroke-width="0.565972"/>
<rect x="630.172" y="449.595" width="44.7118" height="44.7118" stroke="white" stroke-opacity="0.41" stroke-width="0.565972"/>
<rect x="675.45" y="449.595" width="44.7118" height="44.7118" stroke="white" stroke-opacity="0.41" stroke-width="0.565972"/>
<rect x="720.728" y="449.595" width="44.7118" height="44.7118" stroke="white" stroke-opacity="0.41" stroke-width="0.565972"/>
<rect x="766.005" y="449.595" width="44.7118" height="44.7118" stroke="white" stroke-opacity="0.41" stroke-width="0.565972"/>
<rect x="811.283" y="449.595" width="44.7118" height="44.7118" stroke="white" stroke-opacity="0.41" stroke-width="0.565972"/>
<rect x="856.561" y="449.595" width="44.7118" height="44.7118" stroke="white" stroke-opacity="0.41" stroke-width="0.565972"/>
<rect x="901.839" y="449.595" width="44.7118" height="44.7118" stroke="white" stroke-opacity="0.41" stroke-width="0.565972"/>
<rect x="947.116" y="449.595" width="44.7118" height="44.7118" stroke="white" stroke-opacity="0.41" stroke-width="0.565972"/>
<rect x="992.394" y="449.595" width="44.7118" height="44.7118" stroke="white" stroke-opacity="0.41" stroke-width="0.565972"/>
<rect x="1037.67" y="449.595" width="44.7118" height="44.7118" stroke="white" stroke-opacity="0.41" stroke-width="0.565972"/>
<rect x="1082.95" y="449.595" width="44.7118" height="44.7118" stroke="white" stroke-opacity="0.41" stroke-width="0.565972"/>
<rect x="1128.23" y="449.595" width="44.7118" height="44.7118" stroke="white" stroke-opacity="0.41" stroke-width="0.565972"/>
<rect x="1173.51" y="449.595" width="44.7118" height="44.7118" stroke="white" stroke-opacity="0.41" stroke-width="0.565972"/>
<rect x="1218.78" y="449.595" width="44.7118" height="44.7118" stroke="white" stroke-opacity="0.41" stroke-width="0.565972"/>
<rect x="1264.06" y="449.595" width="44.7118" height="44.7118" stroke="white" stroke-opacity="0.41" stroke-width="0.565972"/>
<rect x="1309.34" y="449.595" width="44.7118" height="44.7118" stroke="white" stroke-opacity="0.41" stroke-width="0.565972"/>
<rect x="1354.62" y="449.595" width="44.7118" height="44.7118" stroke="white" stroke-opacity="0.41" stroke-width="0.565972"/>
<rect x="1399.89" y="449.595" width="44.7118" height="44.7118" stroke="white" stroke-opacity="0.41" stroke-width="0.565972"/>
<rect x="-3.71695" y="494.875" width="44.7118" height="44.7118" stroke="white" stroke-opacity="0.41" stroke-width="0.565972"/>
<rect x="41.5608" y="494.875" width="44.7118" height="44.7118" stroke="white" stroke-opacity="0.41" stroke-width="0.565972"/>
<rect x="86.8385" y="494.875" width="44.7118" height="44.7118" stroke="white" stroke-opacity="0.41" stroke-width="0.565972"/>
<rect x="132.116" y="494.875" width="44.7118" height="44.7118" stroke="white" stroke-opacity="0.41" stroke-width="0.565972"/>
<rect x="177.394" y="494.875" width="44.7118" height="44.7118" stroke="white" stroke-opacity="0.41" stroke-width="0.565972"/>
<rect x="222.389" y="494.592" width="45.2778" height="45.2778" fill="white" fill-opacity="0.43"/>
<rect x="222.672" y="494.875" width="44.7118" height="44.7118" stroke="white" stroke-opacity="0.41" stroke-width="0.565972"/>
<rect x="267.95" y="494.875" width="44.7118" height="44.7118" stroke="white" stroke-opacity="0.41" stroke-width="0.565972"/>
<rect x="313.228" y="494.875" width="44.7118" height="44.7118" stroke="white" stroke-opacity="0.41" stroke-width="0.565972"/>
<rect x="358.505" y="494.875" width="44.7118" height="44.7118" stroke="white" stroke-opacity="0.41" stroke-width="0.565972"/>
<rect x="403.783" y="494.875" width="44.7118" height="44.7118" stroke="white" stroke-opacity="0.41" stroke-width="0.565972"/>
<rect x="449.061" y="494.875" width="44.7118" height="44.7118" stroke="white" stroke-opacity="0.41" stroke-width="0.565972"/>
<rect x="494.339" y="494.875" width="44.7118" height="44.7118" stroke="white" stroke-opacity="0.41" stroke-width="0.565972"/>
<rect x="539.616" y="494.875" width="44.7118" height="44.7118" stroke="white" stroke-opacity="0.41" stroke-width="0.565972"/>
<rect x="584.894" y="494.875" width="44.7118" height="44.7118" stroke="white" stroke-opacity="0.41" stroke-width="0.565972"/>
<rect x="630.172" y="494.875" width="44.7118" height="44.7118" stroke="white" stroke-opacity="0.41" stroke-width="0.565972"/>
<rect x="675.45" y="494.875" width="44.7118" height="44.7118" stroke="white" stroke-opacity="0.41" stroke-width="0.565972"/>
<rect x="720.728" y="494.875" width="44.7118" height="44.7118" stroke="white" stroke-opacity="0.41" stroke-width="0.565972"/>
<rect x="766.005" y="494.875" width="44.7118" height="44.7118" stroke="white" stroke-opacity="0.41" stroke-width="0.565972"/>
<rect x="811.283" y="494.875" width="44.7118" height="44.7118" stroke="white" stroke-opacity="0.41" stroke-width="0.565972"/>
<rect x="856.561" y="494.875" width="44.7118" height="44.7118" stroke="white" stroke-opacity="0.41" stroke-width="0.565972"/>
<rect x="901.839" y="494.875" width="44.7118" height="44.7118" stroke="white" stroke-opacity="0.41" stroke-width="0.565972"/>
<rect x="947.116" y="494.875" width="44.7118" height="44.7118" stroke="white" stroke-opacity="0.41" stroke-width="0.565972"/>
<rect x="992.394" y="494.875" width="44.7118" height="44.7118" stroke="white" stroke-opacity="0.41" stroke-width="0.565972"/>
<rect x="1037.39" y="494.592" width="45.2778" height="45.2778" fill="white" fill-opacity="0.43"/>
<rect x="1037.67" y="494.875" width="44.7118" height="44.7118" stroke="white" stroke-opacity="0.41" stroke-width="0.565972"/>
<rect x="1082.95" y="494.875" width="44.7118" height="44.7118" stroke="white" stroke-opacity="0.41" stroke-width="0.565972"/>
<rect x="1128.23" y="494.875" width="44.7118" height="44.7118" stroke="white" stroke-opacity="0.41" stroke-width="0.565972"/>
<rect x="1173.51" y="494.875" width="44.7118" height="44.7118" stroke="white" stroke-opacity="0.41" stroke-width="0.565972"/>
<rect x="1218.78" y="494.875" width="44.7118" height="44.7118" stroke="white" stroke-opacity="0.41" stroke-width="0.565972"/>
<rect x="1264.06" y="494.875" width="44.7118" height="44.7118" stroke="white" stroke-opacity="0.41" stroke-width="0.565972"/>
<rect x="1309.34" y="494.875" width="44.7118" height="44.7118" stroke="white" stroke-opacity="0.41" stroke-width="0.565972"/>
<rect x="1354.62" y="494.875" width="44.7118" height="44.7118" stroke="white" stroke-opacity="0.41" stroke-width="0.565972"/>
<rect x="1399.89" y="494.875" width="44.7118" height="44.7118" stroke="white" stroke-opacity="0.41" stroke-width="0.565972"/>
<rect x="-3.71695" y="540.152" width="44.7118" height="44.7118" stroke="white" stroke-opacity="0.41" stroke-width="0.565972"/>
<rect x="41.2778" y="539.869" width="45.2778" height="45.2778" fill="white" fill-opacity="0.43"/>
<rect x="41.5608" y="540.152" width="44.7118" height="44.7118" stroke="white" stroke-opacity="0.41" stroke-width="0.565972"/>
<rect x="86.8386" y="540.152" width="44.7118" height="44.7118" stroke="white" stroke-opacity="0.41" stroke-width="0.565972"/>
<rect x="132.116" y="540.152" width="44.7118" height="44.7118" stroke="white" stroke-opacity="0.41" stroke-width="0.565972"/>
<rect x="177.394" y="540.152" width="44.7118" height="44.7118" stroke="white" stroke-opacity="0.41" stroke-width="0.565972"/>
<rect x="222.672" y="540.152" width="44.7118" height="44.7118" stroke="white" stroke-opacity="0.41" stroke-width="0.565972"/>
<rect x="267.95" y="540.152" width="44.7118" height="44.7118" stroke="white" stroke-opacity="0.41" stroke-width="0.565972"/>
<rect x="313.228" y="540.152" width="44.7118" height="44.7118" stroke="white" stroke-opacity="0.41" stroke-width="0.565972"/>
<rect x="358.505" y="540.152" width="44.7118" height="44.7118" stroke="white" stroke-opacity="0.41" stroke-width="0.565972"/>
<rect x="403.5" y="539.869" width="45.2778" height="45.2778" fill="white" fill-opacity="0.43"/>
<rect x="403.783" y="540.152" width="44.7118" height="44.7118" stroke="white" stroke-opacity="0.41" stroke-width="0.565972"/>
<rect x="449.061" y="540.152" width="44.7118" height="44.7118" stroke="white" stroke-opacity="0.41" stroke-width="0.565972"/>
<rect x="494.339" y="540.152" width="44.7118" height="44.7118" stroke="white" stroke-opacity="0.41" stroke-width="0.565972"/>
<rect x="539.616" y="540.152" width="44.7118" height="44.7118" stroke="white" stroke-opacity="0.41" stroke-width="0.565972"/>
<rect x="584.894" y="540.152" width="44.7118" height="44.7118" stroke="white" stroke-opacity="0.41" stroke-width="0.565972"/>
<rect x="630.172" y="540.152" width="44.7118" height="44.7118" stroke="white" stroke-opacity="0.41" stroke-width="0.565972"/>
<rect x="675.45" y="540.152" width="44.7118" height="44.7118" stroke="white" stroke-opacity="0.41" stroke-width="0.565972"/>
<rect x="720.727" y="540.152" width="44.7118" height="44.7118" stroke="white" stroke-opacity="0.41" stroke-width="0.565972"/>
<rect x="766.005" y="540.152" width="44.7118" height="44.7118" stroke="white" stroke-opacity="0.41" stroke-width="0.565972"/>
<rect x="811.283" y="540.152" width="44.7118" height="44.7118" stroke="white" stroke-opacity="0.41" stroke-width="0.565972"/>
<rect x="856.561" y="540.152" width="44.7118" height="44.7118" stroke="white" stroke-opacity="0.41" stroke-width="0.565972"/>
<rect x="901.839" y="540.152" width="44.7118" height="44.7118" stroke="white" stroke-opacity="0.41" stroke-width="0.565972"/>
<rect x="947.116" y="540.152" width="44.7118" height="44.7118" stroke="white" stroke-opacity="0.41" stroke-width="0.565972"/>
<rect x="992.394" y="540.152" width="44.7118" height="44.7118" stroke="white" stroke-opacity="0.41" stroke-width="0.565972"/>
<rect x="1037.67" y="540.152" width="44.7118" height="44.7118" stroke="white" stroke-opacity="0.41" stroke-width="0.565972"/>
<rect x="1082.95" y="540.152" width="44.7118" height="44.7118" stroke="white" stroke-opacity="0.41" stroke-width="0.565972"/>
<rect x="1128.23" y="540.152" width="44.7118" height="44.7118" stroke="white" stroke-opacity="0.41" stroke-width="0.565972"/>
<rect x="1173.51" y="540.152" width="44.7118" height="44.7118" stroke="white" stroke-opacity="0.41" stroke-width="0.565972"/>
<rect x="1218.78" y="540.152" width="44.7118" height="44.7118" stroke="white" stroke-opacity="0.41" stroke-width="0.565972"/>
<rect x="1264.06" y="540.152" width="44.7118" height="44.7118" stroke="white" stroke-opacity="0.41" stroke-width="0.565972"/>
<rect x="1309.06" y="539.869" width="45.2778" height="45.2778" fill="white" fill-opacity="0.43"/>
<rect x="1309.34" y="540.152" width="44.7118" height="44.7118" stroke="white" stroke-opacity="0.41" stroke-width="0.565972"/>
<rect x="1354.62" y="540.152" width="44.7118" height="44.7118" stroke="white" stroke-opacity="0.41" stroke-width="0.565972"/>
<rect x="1399.89" y="540.152" width="44.7118" height="44.7118" stroke="white" stroke-opacity="0.41" stroke-width="0.565972"/>
<rect x="-3.71695" y="585.429" width="44.7118" height="44.7118" stroke="white" stroke-opacity="0.41" stroke-width="0.565972"/>
<rect x="41.5608" y="585.429" width="44.7118" height="44.7118" stroke="white" stroke-opacity="0.41" stroke-width="0.565972"/>
<rect x="86.8385" y="585.429" width="44.7118" height="44.7118" stroke="white" stroke-opacity="0.41" stroke-width="0.565972"/>
<rect x="131.833" y="585.146" width="45.2778" height="45.2778" fill="white" fill-opacity="0.43"/>
<rect x="132.116" y="585.429" width="44.7118" height="44.7118" stroke="white" stroke-opacity="0.41" stroke-width="0.565972"/>
<rect x="177.394" y="585.429" width="44.7118" height="44.7118" stroke="white" stroke-opacity="0.41" stroke-width="0.565972"/>
<rect x="222.672" y="585.429" width="44.7118" height="44.7118" stroke="white" stroke-opacity="0.41" stroke-width="0.565972"/>
<rect x="267.667" y="585.146" width="45.2778" height="45.2778" fill="white" fill-opacity="0.43"/>
<rect x="267.95" y="585.429" width="44.7118" height="44.7118" stroke="white" stroke-opacity="0.41" stroke-width="0.565972"/>
<rect x="313.228" y="585.429" width="44.7118" height="44.7118" stroke="white" stroke-opacity="0.41" stroke-width="0.565972"/>
<rect x="358.505" y="585.429" width="44.7118" height="44.7118" stroke="white" stroke-opacity="0.41" stroke-width="0.565972"/>
<rect x="403.783" y="585.429" width="44.7118" height="44.7118" stroke="white" stroke-opacity="0.41" stroke-width="0.565972"/>
<rect x="449.061" y="585.429" width="44.7118" height="44.7118" stroke="white" stroke-opacity="0.41" stroke-width="0.565972"/>
<rect x="494.339" y="585.429" width="44.7118" height="44.7118" stroke="white" stroke-opacity="0.41" stroke-width="0.565972"/>
<rect x="539.616" y="585.429" width="44.7118" height="44.7118" stroke="white" stroke-opacity="0.41" stroke-width="0.565972"/>
<rect x="584.894" y="585.429" width="44.7118" height="44.7118" stroke="white" stroke-opacity="0.41" stroke-width="0.565972"/>
<rect x="630.172" y="585.429" width="44.7118" height="44.7118" stroke="white" stroke-opacity="0.41" stroke-width="0.565972"/>
<rect x="675.45" y="585.429" width="44.7118" height="44.7118" stroke="white" stroke-opacity="0.41" stroke-width="0.565972"/>
<rect x="720.727" y="585.429" width="44.7118" height="44.7118" stroke="white" stroke-opacity="0.41" stroke-width="0.565972"/>
<rect x="766.005" y="585.429" width="44.7118" height="44.7118" stroke="white" stroke-opacity="0.41" stroke-width="0.565972"/>
<rect x="811.283" y="585.429" width="44.7118" height="44.7118" stroke="white" stroke-opacity="0.41" stroke-width="0.565972"/>
<rect x="856.561" y="585.429" width="44.7118" height="44.7118" stroke="white" stroke-opacity="0.41" stroke-width="0.565972"/>
<rect x="901.839" y="585.429" width="44.7118" height="44.7118" stroke="white" stroke-opacity="0.41" stroke-width="0.565972"/>
<rect x="947.116" y="585.429" width="44.7118" height="44.7118" stroke="white" stroke-opacity="0.41" stroke-width="0.565972"/>
<rect x="992.394" y="585.429" width="44.7118" height="44.7118" stroke="white" stroke-opacity="0.41" stroke-width="0.565972"/>
<rect x="1037.67" y="585.429" width="44.7118" height="44.7118" stroke="white" stroke-opacity="0.41" stroke-width="0.565972"/>
<rect x="1082.67" y="585.146" width="45.2778" height="45.2778" fill="white" fill-opacity="0.43"/>
<rect x="1082.95" y="585.429" width="44.7118" height="44.7118" stroke="white" stroke-opacity="0.41" stroke-width="0.565972"/>
<rect x="1128.23" y="585.429" width="44.7118" height="44.7118" stroke="white" stroke-opacity="0.41" stroke-width="0.565972"/>
<rect x="1173.51" y="585.429" width="44.7118" height="44.7118" stroke="white" stroke-opacity="0.41" stroke-width="0.565972"/>
<rect x="1218.78" y="585.429" width="44.7118" height="44.7118" stroke="white" stroke-opacity="0.41" stroke-width="0.565972"/>
<rect x="1264.06" y="585.429" width="44.7118" height="44.7118" stroke="white" stroke-opacity="0.41" stroke-width="0.565972"/>
<rect x="1309.34" y="585.429" width="44.7118" height="44.7118" stroke="white" stroke-opacity="0.41" stroke-width="0.565972"/>
<rect x="1354.62" y="585.429" width="44.7118" height="44.7118" stroke="white" stroke-opacity="0.41" stroke-width="0.565972"/>
<rect x="1399.89" y="585.429" width="44.7118" height="44.7118" stroke="white" stroke-opacity="0.41" stroke-width="0.565972"/>
<rect x="-3.99994" y="630.424" width="45.2778" height="45.2778" fill="white" fill-opacity="0.33"/>
<rect x="-3.71695" y="630.707" width="44.7118" height="44.7118" stroke="white" stroke-opacity="0.41" stroke-width="0.565972"/>
<rect x="41.5608" y="630.707" width="44.7118" height="44.7118" stroke="white" stroke-opacity="0.41" stroke-width="0.565972"/>
<rect x="86.8385" y="630.707" width="44.7118" height="44.7118" stroke="white" stroke-opacity="0.41" stroke-width="0.565972"/>
<rect x="132.116" y="630.707" width="44.7118" height="44.7118" stroke="white" stroke-opacity="0.41" stroke-width="0.565972"/>
<rect x="177.394" y="630.707" width="44.7118" height="44.7118" stroke="white" stroke-opacity="0.41" stroke-width="0.565972"/>
<rect x="222.672" y="630.707" width="44.7118" height="44.7118" stroke="white" stroke-opacity="0.41" stroke-width="0.565972"/>
<rect x="267.95" y="630.707" width="44.7118" height="44.7118" stroke="white" stroke-opacity="0.41" stroke-width="0.565972"/>
<rect x="313.228" y="630.707" width="44.7118" height="44.7118" stroke="white" stroke-opacity="0.41" stroke-width="0.565972"/>
<rect x="358.505" y="630.707" width="44.7118" height="44.7118" stroke="white" stroke-opacity="0.41" stroke-width="0.565972"/>
<rect x="403.783" y="630.707" width="44.7118" height="44.7118" stroke="white" stroke-opacity="0.41" stroke-width="0.565972"/>
<rect x="449.061" y="630.707" width="44.7118" height="44.7118" stroke="white" stroke-opacity="0.41" stroke-width="0.565972"/>
<rect x="494.339" y="630.707" width="44.7118" height="44.7118" stroke="white" stroke-opacity="0.41" stroke-width="0.565972"/>
<rect x="539.616" y="630.707" width="44.7118" height="44.7118" stroke="white" stroke-opacity="0.41" stroke-width="0.565972"/>
<rect x="584.894" y="630.707" width="44.7118" height="44.7118" stroke="white" stroke-opacity="0.41" stroke-width="0.565972"/>
<rect x="630.172" y="630.707" width="44.7118" height="44.7118" stroke="white" stroke-opacity="0.41" stroke-width="0.565972"/>
<rect x="675.45" y="630.707" width="44.7118" height="44.7118" stroke="white" stroke-opacity="0.41" stroke-width="0.565972"/>
<rect x="720.727" y="630.707" width="44.7118" height="44.7118" stroke="white" stroke-opacity="0.41" stroke-width="0.565972"/>
<rect x="766.005" y="630.707" width="44.7118" height="44.7118" stroke="white" stroke-opacity="0.41" stroke-width="0.565972"/>
<rect x="811.283" y="630.707" width="44.7118" height="44.7118" stroke="white" stroke-opacity="0.41" stroke-width="0.565972"/>
<rect x="856.561" y="630.707" width="44.7118" height="44.7118" stroke="white" stroke-opacity="0.41" stroke-width="0.565972"/>
<rect x="901.838" y="630.707" width="44.7118" height="44.7118" stroke="white" stroke-opacity="0.41" stroke-width="0.565972"/>
<rect x="946.833" y="630.424" width="45.2778" height="45.2778" fill="white" fill-opacity="0.25"/>
<rect x="947.116" y="630.707" width="44.7118" height="44.7118" stroke="white" stroke-opacity="0.41" stroke-width="0.565972"/>
<rect x="992.394" y="630.707" width="44.7118" height="44.7118" stroke="white" stroke-opacity="0.41" stroke-width="0.565972"/>
<rect x="1037.67" y="630.707" width="44.7118" height="44.7118" stroke="white" stroke-opacity="0.41" stroke-width="0.565972"/>
<rect x="1082.95" y="630.707" width="44.7118" height="44.7118" stroke="white" stroke-opacity="0.41" stroke-width="0.565972"/>
<rect x="1128.23" y="630.707" width="44.7118" height="44.7118" stroke="white" stroke-opacity="0.41" stroke-width="0.565972"/>
<rect x="1173.5" y="630.707" width="44.7118" height="44.7118" stroke="white" stroke-opacity="0.41" stroke-width="0.565972"/>
<rect x="1218.78" y="630.707" width="44.7118" height="44.7118" stroke="white" stroke-opacity="0.41" stroke-width="0.565972"/>
<rect x="1263.78" y="630.424" width="45.2778" height="45.2778" fill="white" fill-opacity="0.43"/>
<rect x="1264.06" y="630.707" width="44.7118" height="44.7118" stroke="white" stroke-opacity="0.41" stroke-width="0.565972"/>
<rect x="1309.34" y="630.707" width="44.7118" height="44.7118" stroke="white" stroke-opacity="0.41" stroke-width="0.565972"/>
<rect x="1354.62" y="630.707" width="44.7118" height="44.7118" stroke="white" stroke-opacity="0.41" stroke-width="0.565972"/>
<rect x="1399.89" y="630.707" width="44.7118" height="44.7118" stroke="white" stroke-opacity="0.41" stroke-width="0.565972"/>
<rect x="-3.71695" y="675.986" width="44.7118" height="44.7118" stroke="white" stroke-opacity="0.41" stroke-width="0.565972"/>
<rect x="41.5608" y="675.986" width="44.7118" height="44.7118" stroke="white" stroke-opacity="0.41" stroke-width="0.565972"/>
<rect x="86.8385" y="675.986" width="44.7118" height="44.7118" stroke="white" stroke-opacity="0.41" stroke-width="0.565972"/>
<rect x="132.116" y="675.986" width="44.7118" height="44.7118" stroke="white" stroke-opacity="0.41" stroke-width="0.565972"/>
<rect x="177.394" y="675.986" width="44.7118" height="44.7118" stroke="white" stroke-opacity="0.41" stroke-width="0.565972"/>
<rect x="222.389" y="675.703" width="45.2778" height="45.2778" fill="white" fill-opacity="0.33"/>
<rect x="222.672" y="675.986" width="44.7118" height="44.7118" stroke="white" stroke-opacity="0.41" stroke-width="0.565972"/>
<rect x="267.95" y="675.986" width="44.7118" height="44.7118" stroke="white" stroke-opacity="0.41" stroke-width="0.565972"/>
<rect x="313.228" y="675.986" width="44.7118" height="44.7118" stroke="white" stroke-opacity="0.41" stroke-width="0.565972"/>
<rect x="358.505" y="675.986" width="44.7118" height="44.7118" stroke="white" stroke-opacity="0.41" stroke-width="0.565972"/>
<rect x="403.783" y="675.986" width="44.7118" height="44.7118" stroke="white" stroke-opacity="0.41" stroke-width="0.565972"/>
<rect x="448.778" y="675.703" width="45.2778" height="45.2778" fill="white" fill-opacity="0.33"/>
<rect x="449.061" y="675.986" width="44.7118" height="44.7118" stroke="white" stroke-opacity="0.41" stroke-width="0.565972"/>
<rect x="494.339" y="675.986" width="44.7118" height="44.7118" stroke="white" stroke-opacity="0.41" stroke-width="0.565972"/>
<rect x="539.616" y="675.986" width="44.7118" height="44.7118" stroke="white" stroke-opacity="0.41" stroke-width="0.565972"/>
<rect x="584.894" y="675.986" width="44.7118" height="44.7118" stroke="white" stroke-opacity="0.41" stroke-width="0.565972"/>
<rect x="630.172" y="675.986" width="44.7118" height="44.7118" stroke="white" stroke-opacity="0.41" stroke-width="0.565972"/>
<rect x="675.45" y="675.986" width="44.7118" height="44.7118" stroke="white" stroke-opacity="0.41" stroke-width="0.565972"/>
<rect x="720.727" y="675.986" width="44.7118" height="44.7118" stroke="white" stroke-opacity="0.41" stroke-width="0.565972"/>
<rect x="765.722" y="675.703" width="45.2778" height="45.2778" fill="white" fill-opacity="0.33"/>
<rect x="766.005" y="675.986" width="44.7118" height="44.7118" stroke="white" stroke-opacity="0.41" stroke-width="0.565972"/>
<rect x="811.283" y="675.986" width="44.7118" height="44.7118" stroke="white" stroke-opacity="0.41" stroke-width="0.565972"/>
<rect x="856.561" y="675.986" width="44.7118" height="44.7118" stroke="white" stroke-opacity="0.41" stroke-width="0.565972"/>
<rect x="901.838" y="675.986" width="44.7118" height="44.7118" stroke="white" stroke-opacity="0.41" stroke-width="0.565972"/>
<rect x="947.116" y="675.986" width="44.7118" height="44.7118" stroke="white" stroke-opacity="0.41" stroke-width="0.565972"/>
<rect x="992.394" y="675.986" width="44.7118" height="44.7118" stroke="white" stroke-opacity="0.41" stroke-width="0.565972"/>
<rect x="1037.67" y="675.986" width="44.7118" height="44.7118" stroke="white" stroke-opacity="0.41" stroke-width="0.565972"/>
<rect x="1082.95" y="675.986" width="44.7118" height="44.7118" stroke="white" stroke-opacity="0.41" stroke-width="0.565972"/>
<rect x="1128.23" y="675.986" width="44.7118" height="44.7118" stroke="white" stroke-opacity="0.41" stroke-width="0.565972"/>
<rect x="1173.22" y="675.703" width="45.2778" height="45.2778" fill="white" fill-opacity="0.33"/>
<rect x="1173.5" y="675.986" width="44.7118" height="44.7118" stroke="white" stroke-opacity="0.41" stroke-width="0.565972"/>
<rect x="1218.78" y="675.986" width="44.7118" height="44.7118" stroke="white" stroke-opacity="0.41" stroke-width="0.565972"/>
<rect x="1264.06" y="675.986" width="44.7118" height="44.7118" stroke="white" stroke-opacity="0.41" stroke-width="0.565972"/>
<rect x="1309.34" y="675.986" width="44.7118" height="44.7118" stroke="white" stroke-opacity="0.41" stroke-width="0.565972"/>
<rect x="1354.62" y="675.986" width="44.7118" height="44.7118" stroke="white" stroke-opacity="0.41" stroke-width="0.565972"/>
<rect x="1399.61" y="675.703" width="45.2778" height="45.2778" fill="white" fill-opacity="0.33"/>
<rect x="1399.89" y="675.986" width="44.7118" height="44.7118" stroke="white" stroke-opacity="0.41" stroke-width="0.565972"/>
<rect x="-3.71695" y="721.263" width="44.7118" height="44.7118" stroke="white" stroke-opacity="0.41" stroke-width="0.565972"/>
<rect x="41.5608" y="721.263" width="44.7118" height="44.7118" stroke="white" stroke-opacity="0.41" stroke-width="0.565972"/>
<rect x="86.8385" y="721.263" width="44.7118" height="44.7118" stroke="white" stroke-opacity="0.41" stroke-width="0.565972"/>
<rect x="131.833" y="720.98" width="45.2778" height="45.2778" fill="white" fill-opacity="0.25"/>
<rect x="132.116" y="721.263" width="44.7118" height="44.7118" stroke="white" stroke-opacity="0.41" stroke-width="0.565972"/>
<rect x="177.394" y="721.263" width="44.7118" height="44.7118" stroke="white" stroke-opacity="0.41" stroke-width="0.565972"/>
<rect x="222.672" y="721.263" width="44.7118" height="44.7118" stroke="white" stroke-opacity="0.41" stroke-width="0.565972"/>
<rect x="267.95" y="721.263" width="44.7118" height="44.7118" stroke="white" stroke-opacity="0.41" stroke-width="0.565972"/>
<rect x="313.228" y="721.263" width="44.7118" height="44.7118" stroke="white" stroke-opacity="0.41" stroke-width="0.565972"/>
<rect x="358.505" y="721.263" width="44.7118" height="44.7118" stroke="white" stroke-opacity="0.41" stroke-width="0.565972"/>
<rect x="403.783" y="721.263" width="44.7118" height="44.7118" stroke="white" stroke-opacity="0.41" stroke-width="0.565972"/>
<rect x="449.061" y="721.263" width="44.7118" height="44.7118" stroke="white" stroke-opacity="0.41" stroke-width="0.565972"/>
<rect x="494.339" y="721.263" width="44.7118" height="44.7118" stroke="white" stroke-opacity="0.41" stroke-width="0.565972"/>
<rect x="539.333" y="720.98" width="45.2778" height="45.2778" fill="white" fill-opacity="0.25"/>
<rect x="539.616" y="721.263" width="44.7118" height="44.7118" stroke="white" stroke-opacity="0.41" stroke-width="0.565972"/>
<rect x="584.894" y="721.263" width="44.7118" height="44.7118" stroke="white" stroke-opacity="0.41" stroke-width="0.565972"/>
<rect x="630.172" y="721.263" width="44.7118" height="44.7118" stroke="white" stroke-opacity="0.41" stroke-width="0.565972"/>
<rect x="675.167" y="720.98" width="45.2778" height="45.2778" fill="white" fill-opacity="0.25"/>
<rect x="675.45" y="721.263" width="44.7118" height="44.7118" stroke="white" stroke-opacity="0.41" stroke-width="0.565972"/>
<rect x="720.727" y="721.263" width="44.7118" height="44.7118" stroke="white" stroke-opacity="0.41" stroke-width="0.565972"/>
<rect x="766.005" y="721.263" width="44.7118" height="44.7118" stroke="white" stroke-opacity="0.41" stroke-width="0.565972"/>
<rect x="811.283" y="721.263" width="44.7118" height="44.7118" stroke="white" stroke-opacity="0.41" stroke-width="0.565972"/>
<rect x="856.561" y="721.263" width="44.7118" height="44.7118" stroke="white" stroke-opacity="0.41" stroke-width="0.565972"/>
<rect x="901.838" y="721.263" width="44.7118" height="44.7118" stroke="white" stroke-opacity="0.41" stroke-width="0.565972"/>
<rect x="947.116" y="721.263" width="44.7118" height="44.7118" stroke="white" stroke-opacity="0.41" stroke-width="0.565972"/>
<rect x="992.394" y="721.263" width="44.7118" height="44.7118" stroke="white" stroke-opacity="0.41" stroke-width="0.565972"/>
<rect x="1037.67" y="721.263" width="44.7118" height="44.7118" stroke="white" stroke-opacity="0.41" stroke-width="0.565972"/>
<rect x="1082.67" y="720.98" width="45.2778" height="45.2778" fill="white" fill-opacity="0.25"/>
<rect x="1082.95" y="721.263" width="44.7118" height="44.7118" stroke="white" stroke-opacity="0.41" stroke-width="0.565972"/>
<rect x="1128.23" y="721.263" width="44.7118" height="44.7118" stroke="white" stroke-opacity="0.41" stroke-width="0.565972"/>
<rect x="1173.5" y="721.263" width="44.7118" height="44.7118" stroke="white" stroke-opacity="0.41" stroke-width="0.565972"/>
<rect x="1218.78" y="721.263" width="44.7118" height="44.7118" stroke="white" stroke-opacity="0.41" stroke-width="0.565972"/>
<rect x="1263.78" y="720.98" width="45.2778" height="45.2778" fill="white" fill-opacity="0.25"/>
<rect x="1264.06" y="721.263" width="44.7118" height="44.7118" stroke="white" stroke-opacity="0.41" stroke-width="0.565972"/>
<rect x="1309.34" y="721.263" width="44.7118" height="44.7118" stroke="white" stroke-opacity="0.41" stroke-width="0.565972"/>
<rect x="1354.62" y="721.263" width="44.7118" height="44.7118" stroke="white" stroke-opacity="0.41" stroke-width="0.565972"/>
<rect x="1399.89" y="721.263" width="44.7118" height="44.7118" stroke="white" stroke-opacity="0.41" stroke-width="0.565972"/>
<rect x="-3.99994" y="766.258" width="45.2778" height="45.2778" fill="white" fill-opacity="0.33"/>
<rect x="-3.71695" y="766.541" width="44.7118" height="44.7118" stroke="white" stroke-opacity="0.41" stroke-width="0.565972"/>
<rect x="41.5608" y="766.541" width="44.7118" height="44.7118" stroke="white" stroke-opacity="0.41" stroke-width="0.565972"/>
<rect x="86.8386" y="766.541" width="44.7118" height="44.7118" stroke="white" stroke-opacity="0.41" stroke-width="0.565972"/>
<rect x="132.116" y="766.541" width="44.7118" height="44.7118" stroke="white" stroke-opacity="0.41" stroke-width="0.565972"/>
<rect x="177.394" y="766.541" width="44.7118" height="44.7118" stroke="white" stroke-opacity="0.41" stroke-width="0.565972"/>
<rect x="222.672" y="766.541" width="44.7118" height="44.7118" stroke="white" stroke-opacity="0.41" stroke-width="0.565972"/>
<rect x="267.667" y="766.258" width="45.2778" height="45.2778" fill="white" fill-opacity="0.25"/>
<rect x="267.95" y="766.541" width="44.7118" height="44.7118" stroke="white" stroke-opacity="0.41" stroke-width="0.565972"/>
<rect x="313.228" y="766.541" width="44.7118" height="44.7118" stroke="white" stroke-opacity="0.41" stroke-width="0.565972"/>
<rect x="358.505" y="766.541" width="44.7118" height="44.7118" stroke="white" stroke-opacity="0.41" stroke-width="0.565972"/>
<rect x="403.5" y="766.258" width="45.2778" height="45.2778" fill="white" fill-opacity="0.25"/>
<rect x="403.783" y="766.541" width="44.7118" height="44.7118" stroke="white" stroke-opacity="0.41" stroke-width="0.565972"/>
<rect x="449.061" y="766.541" width="44.7118" height="44.7118" stroke="white" stroke-opacity="0.41" stroke-width="0.565972"/>
<rect x="494.339" y="766.541" width="44.7118" height="44.7118" stroke="white" stroke-opacity="0.41" stroke-width="0.565972"/>
<rect x="539.616" y="766.541" width="44.7118" height="44.7118" stroke="white" stroke-opacity="0.41" stroke-width="0.565972"/>
<rect x="584.894" y="766.541" width="44.7118" height="44.7118" stroke="white" stroke-opacity="0.41" stroke-width="0.565972"/>
<rect x="630.172" y="766.541" width="44.7118" height="44.7118" stroke="white" stroke-opacity="0.41" stroke-width="0.565972"/>
<rect x="675.45" y="766.541" width="44.7118" height="44.7118" stroke="white" stroke-opacity="0.41" stroke-width="0.565972"/>
<rect x="720.444" y="766.258" width="45.2778" height="45.2778" fill="white" fill-opacity="0.25"/>
<rect x="720.727" y="766.541" width="44.7118" height="44.7118" stroke="white" stroke-opacity="0.41" stroke-width="0.565972"/>
<rect x="766.005" y="766.541" width="44.7118" height="44.7118" stroke="white" stroke-opacity="0.41" stroke-width="0.565972"/>
<rect x="811.283" y="766.541" width="44.7118" height="44.7118" stroke="white" stroke-opacity="0.41" stroke-width="0.565972"/>
<rect x="856.278" y="766.258" width="45.2778" height="45.2778" fill="white" fill-opacity="0.25"/>
<rect x="856.561" y="766.541" width="44.7118" height="44.7118" stroke="white" stroke-opacity="0.41" stroke-width="0.565972"/>
<rect x="901.838" y="766.541" width="44.7118" height="44.7118" stroke="white" stroke-opacity="0.41" stroke-width="0.565972"/>
<rect x="947.116" y="766.541" width="44.7118" height="44.7118" stroke="white" stroke-opacity="0.41" stroke-width="0.565972"/>
<rect x="992.111" y="766.258" width="45.2778" height="45.2778" fill="white" fill-opacity="0.25"/>
<rect x="992.394" y="766.541" width="44.7118" height="44.7118" stroke="white" stroke-opacity="0.41" stroke-width="0.565972"/>
<rect x="1037.67" y="766.541" width="44.7118" height="44.7118" stroke="white" stroke-opacity="0.41" stroke-width="0.565972"/>
<rect x="1082.95" y="766.541" width="44.7118" height="44.7118" stroke="white" stroke-opacity="0.41" stroke-width="0.565972"/>
<rect x="1128.23" y="766.541" width="44.7118" height="44.7118" stroke="white" stroke-opacity="0.41" stroke-width="0.565972"/>
<rect x="1173.5" y="766.541" width="44.7118" height="44.7118" stroke="white" stroke-opacity="0.41" stroke-width="0.565972"/>
<rect x="1218.78" y="766.541" width="44.7118" height="44.7118" stroke="white" stroke-opacity="0.41" stroke-width="0.565972"/>
<rect x="1264.06" y="766.541" width="44.7118" height="44.7118" stroke="white" stroke-opacity="0.41" stroke-width="0.565972"/>
<rect x="1309.34" y="766.541" width="44.7118" height="44.7118" stroke="white" stroke-opacity="0.41" stroke-width="0.565972"/>
<rect x="1354.33" y="766.258" width="45.2778" height="45.2778" fill="white" fill-opacity="0.25"/>
<rect x="1354.62" y="766.541" width="44.7118" height="44.7118" stroke="white" stroke-opacity="0.41" stroke-width="0.565972"/>
<rect x="1399.89" y="766.541" width="44.7118" height="44.7118" stroke="white" stroke-opacity="0.41" stroke-width="0.565972"/>
<rect x="-3.71695" y="811.818" width="44.7118" height="44.7118" stroke="white" stroke-opacity="0.41" stroke-width="0.565972"/>
<rect x="41.2778" y="811.535" width="45.2778" height="45.2778" fill="white" fill-opacity="0.25"/>
<rect x="41.5608" y="811.818" width="44.7118" height="44.7118" stroke="white" stroke-opacity="0.41" stroke-width="0.565972"/>
<rect x="86.8385" y="811.818" width="44.7118" height="44.7118" stroke="white" stroke-opacity="0.41" stroke-width="0.565972"/>
<rect x="132.116" y="811.818" width="44.7118" height="44.7118" stroke="white" stroke-opacity="0.41" stroke-width="0.565972"/>
<rect x="177.394" y="811.818" width="44.7118" height="44.7118" stroke="white" stroke-opacity="0.41" stroke-width="0.565972"/>
<rect x="222.672" y="811.818" width="44.7118" height="44.7118" stroke="white" stroke-opacity="0.41" stroke-width="0.565972"/>
<rect x="267.95" y="811.818" width="44.7118" height="44.7118" stroke="white" stroke-opacity="0.41" stroke-width="0.565972"/>
<rect x="313.228" y="811.818" width="44.7118" height="44.7118" stroke="white" stroke-opacity="0.41" stroke-width="0.565972"/>
<rect x="358.505" y="811.818" width="44.7118" height="44.7118" stroke="white" stroke-opacity="0.41" stroke-width="0.565972"/>
<rect x="403.783" y="811.818" width="44.7118" height="44.7118" stroke="white" stroke-opacity="0.41" stroke-width="0.565972"/>
<rect x="449.061" y="811.818" width="44.7118" height="44.7118" stroke="white" stroke-opacity="0.41" stroke-width="0.565972"/>
<rect x="494.339" y="811.818" width="44.7118" height="44.7118" stroke="white" stroke-opacity="0.41" stroke-width="0.565972"/>
<rect x="539.616" y="811.818" width="44.7118" height="44.7118" stroke="white" stroke-opacity="0.41" stroke-width="0.565972"/>
<rect x="584.894" y="811.818" width="44.7118" height="44.7118" stroke="white" stroke-opacity="0.41" stroke-width="0.565972"/>
<rect x="629.889" y="811.535" width="45.2778" height="45.2778" fill="white" fill-opacity="0.25"/>
<rect x="630.172" y="811.818" width="44.7118" height="44.7118" stroke="white" stroke-opacity="0.41" stroke-width="0.565972"/>
<rect x="675.45" y="811.818" width="44.7118" height="44.7118" stroke="white" stroke-opacity="0.41" stroke-width="0.565972"/>
<rect x="720.727" y="811.818" width="44.7118" height="44.7118" stroke="white" stroke-opacity="0.41" stroke-width="0.565972"/>
<rect x="766.005" y="811.818" width="44.7118" height="44.7118" stroke="white" stroke-opacity="0.41" stroke-width="0.565972"/>
<rect x="811.283" y="811.818" width="44.7118" height="44.7118" stroke="white" stroke-opacity="0.41" stroke-width="0.565972"/>
<rect x="856.561" y="811.818" width="44.7118" height="44.7118" stroke="white" stroke-opacity="0.41" stroke-width="0.565972"/>
<rect x="901.839" y="811.818" width="44.7118" height="44.7118" stroke="white" stroke-opacity="0.41" stroke-width="0.565972"/>
<rect x="947.116" y="811.818" width="44.7118" height="44.7118" stroke="white" stroke-opacity="0.41" stroke-width="0.565972"/>
<rect x="992.394" y="811.818" width="44.7118" height="44.7118" stroke="white" stroke-opacity="0.41" stroke-width="0.565972"/>
<rect x="1037.67" y="811.818" width="44.7118" height="44.7118" stroke="white" stroke-opacity="0.41" stroke-width="0.565972"/>
<rect x="1082.95" y="811.818" width="44.7118" height="44.7118" stroke="white" stroke-opacity="0.41" stroke-width="0.565972"/>
<rect x="1128.23" y="811.818" width="44.7118" height="44.7118" stroke="white" stroke-opacity="0.41" stroke-width="0.565972"/>
<rect x="1173.22" y="811.535" width="45.2778" height="45.2778" fill="white" fill-opacity="0.25"/>
<rect x="1173.51" y="811.818" width="44.7118" height="44.7118" stroke="white" stroke-opacity="0.41" stroke-width="0.565972"/>
<rect x="1218.78" y="811.818" width="44.7118" height="44.7118" stroke="white" stroke-opacity="0.41" stroke-width="0.565972"/>
<rect x="1264.06" y="811.818" width="44.7118" height="44.7118" stroke="white" stroke-opacity="0.41" stroke-width="0.565972"/>
<rect x="1309.34" y="811.818" width="44.7118" height="44.7118" stroke="white" stroke-opacity="0.41" stroke-width="0.565972"/>
<rect x="1354.62" y="811.818" width="44.7118" height="44.7118" stroke="white" stroke-opacity="0.41" stroke-width="0.565972"/>
<rect x="1399.89" y="811.818" width="44.7118" height="44.7118" stroke="white" stroke-opacity="0.41" stroke-width="0.565972"/>
</g>
<defs>
<filter id="filter0_f_226_1711" x="-408" y="-174" width="2342" height="1290.5" filterUnits="userSpaceOnUse" color-interpolation-filters="sRGB">
<feFlood flood-opacity="0" result="BackgroundImageFix"/>
<feBlend mode="normal" in="SourceGraphic" in2="BackgroundImageFix" result="shape"/>
<feGaussianBlur stdDeviation="78" result="effect1_foregroundBlur_226_1711"/>
</filter>
<filter id="filter1_f_226_1711" x="-408" y="-285" width="2342" height="1290.5" filterUnits="userSpaceOnUse" color-interpolation-filters="sRGB">
<feFlood flood-opacity="0" result="BackgroundImageFix"/>
<feBlend mode="normal" in="SourceGraphic" in2="BackgroundImageFix" result="shape"/>
<feGaussianBlur stdDeviation="78" result="effect1_foregroundBlur_226_1711"/>
</filter>
<radialGradient id="paint0_radial_226_1711" cx="0" cy="0" r="1" gradientUnits="userSpaceOnUse" gradientTransform="translate(763.5 80.5) rotate(90) scale(1106.5 10483.3)">
<stop offset="0.264423" stop-color="white"/>
<stop offset="1" stop-color="#94F870"/>
</radialGradient>
<linearGradient id="paint1_linear_226_1711" x1="811" y1="378" x2="811" y2="856.812" gradientUnits="userSpaceOnUse">
<stop stop-color="#D9D9D9" stop-opacity="0"/>
<stop offset="0.461538" stop-color="#737373"/>
<stop offset="0.831731" stop-color="#737373"/>
<stop offset="1" stop-color="#737373" stop-opacity="0"/>
</linearGradient>
</defs>
</svg>
