<svg width="17" height="16" viewBox="0 0 17 16" fill="none" xmlns="http://www.w3.org/2000/svg">
<g clip-path="url(#clip0_347_2168)">
<path d="M8.33337 1.44062C10.4709 1.44062 10.724 1.45 11.5646 1.4875C12.3459 1.52187 12.7677 1.65313 13.049 1.7625C13.4209 1.90625 13.6896 2.08125 13.9677 2.35938C14.249 2.64062 14.4209 2.90625 14.5646 3.27813C14.674 3.55938 14.8053 3.98438 14.8396 4.7625C14.8771 5.60625 14.8865 5.85938 14.8865 7.99375C14.8865 10.1313 14.8771 10.3844 14.8396 11.225C14.8053 12.0063 14.674 12.4281 14.5646 12.7094C14.4209 13.0813 14.2459 13.35 13.9677 13.6281C13.6865 13.9094 13.4209 14.0813 13.049 14.225C12.7677 14.3344 12.3428 14.4656 11.5646 14.5C10.7209 14.5375 10.4678 14.5469 8.33337 14.5469C6.19587 14.5469 5.94275 14.5375 5.10212 14.5C4.32087 14.4656 3.899 14.3344 3.61775 14.225C3.24587 14.0813 2.97712 13.9063 2.699 13.6281C2.41775 13.3469 2.24587 13.0813 2.10212 12.7094C1.99275 12.4281 1.8615 12.0031 1.82712 11.225C1.78962 10.3813 1.78025 10.1281 1.78025 7.99375C1.78025 5.85625 1.78962 5.60313 1.82712 4.7625C1.8615 3.98125 1.99275 3.55938 2.10212 3.27813C2.24587 2.90625 2.42087 2.6375 2.699 2.35938C2.98025 2.07812 3.24587 1.90625 3.61775 1.7625C3.899 1.65313 4.324 1.52187 5.10212 1.4875C5.94275 1.45 6.19587 1.44062 8.33337 1.44062ZM8.33337 0C6.1615 0 5.88962 0.009375 5.0365 0.046875C4.1865 0.084375 3.60212 0.221875 3.09587 0.41875C2.56775 0.625 2.12087 0.896875 1.67712 1.34375C1.23025 1.7875 0.958374 2.23438 0.752124 2.75938C0.555249 3.26875 0.417749 3.85 0.380249 4.7C0.342749 5.55625 0.333374 5.82812 0.333374 8C0.333374 10.1719 0.342749 10.4438 0.380249 11.2969C0.417749 12.1469 0.555249 12.7313 0.752124 13.2375C0.958374 13.7656 1.23025 14.2125 1.67712 14.6562C2.12087 15.1 2.56775 15.375 3.09275 15.5781C3.60212 15.775 4.18337 15.9125 5.03337 15.95C5.8865 15.9875 6.15837 15.9969 8.33025 15.9969C10.5021 15.9969 10.774 15.9875 11.6271 15.95C12.4771 15.9125 13.0615 15.775 13.5678 15.5781C14.0928 15.375 14.5396 15.1 14.9834 14.6562C15.4271 14.2125 15.7021 13.7656 15.9052 13.2406C16.1021 12.7313 16.2396 12.15 16.2771 11.3C16.3146 10.4469 16.324 10.175 16.324 8.00313C16.324 5.83125 16.3146 5.55938 16.2771 4.70625C16.2396 3.85625 16.1021 3.27188 15.9052 2.76562C15.7084 2.23438 15.4365 1.7875 14.9896 1.34375C14.5459 0.9 14.099 0.625 13.574 0.421875C13.0646 0.225 12.4834 0.0875 11.6334 0.05C10.7771 0.009375 10.5052 0 8.33337 0Z" fill="white"/>
<path d="M8.33337 3.89062C6.06462 3.89062 4.224 5.73125 4.224 8C4.224 10.2688 6.06462 12.1094 8.33337 12.1094C10.6021 12.1094 12.4427 10.2688 12.4427 8C12.4427 5.73125 10.6021 3.89062 8.33337 3.89062ZM8.33337 10.6656C6.8615 10.6656 5.66775 9.47188 5.66775 8C5.66775 6.52813 6.8615 5.33437 8.33337 5.33437C9.80525 5.33437 10.999 6.52813 10.999 8C10.999 9.47188 9.80525 10.6656 8.33337 10.6656Z" fill="white"/>
<path d="M13.5646 3.72793C13.5646 4.25918 13.1334 4.68731 12.6052 4.68731C12.074 4.68731 11.6459 4.25606 11.6459 3.72793C11.6459 3.19668 12.0771 2.76855 12.6052 2.76855C13.1334 2.76855 13.5646 3.19981 13.5646 3.72793Z" fill="white"/>
</g>
<defs>
<clipPath id="clip0_347_2168">
<rect width="16" height="16" fill="white" transform="translate(0.333374)"/>
</clipPath>
</defs>
</svg>
