<svg width="20" height="22" viewBox="0 0 20 22" fill="none" xmlns="http://www.w3.org/2000/svg">
<path d="M15.8334 8.66667V6.33333C15.8334 3.11167 13.2217 0.5 10 0.5C6.77836 0.5 4.16669 3.11167 4.16669 6.33333V8.66667M10 13.9167V16.25M6.26669 21.5H13.7334C15.6935 21.5 16.6736 21.5 17.4223 21.1185C18.0809 20.783 18.6163 20.2475 18.9519 19.589C19.3334 18.8403 19.3334 17.8602 19.3334 15.9V14.2667C19.3334 12.3065 19.3334 11.3264 18.9519 10.5777C18.6163 9.91913 18.0809 9.3837 17.4223 9.04814C16.6736 8.66667 15.6935 8.66667 13.7334 8.66667H6.26669C4.3065 8.66667 3.32641 8.66667 2.57772 9.04814C1.91915 9.3837 1.38372 9.91913 1.04816 10.5777C0.666687 11.3264 0.666687 12.3065 0.666687 14.2667V15.9C0.666687 17.8602 0.666687 18.8403 1.04816 19.589C1.38372 20.2475 1.91915 20.783 2.57772 21.1185C3.32641 21.5 4.3065 21.5 6.26669 21.5Z" stroke="#001545" stroke-linecap="round" stroke-linejoin="round"/>
</svg>
