<svg width="75" height="26" viewBox="0 0 75 26" fill="none" xmlns="http://www.w3.org/2000/svg">
<path d="M22.5156 20.1914V25.3378H26.156L29.9136 20.1914H22.5156Z" fill="#001545"/>
<path d="M22.5156 10.2207C22.5156 11.9361 22.5156 13.6518 22.5156 15.3671C25.2005 15.3671 27.8852 15.3671 30.5698 15.3671L34.4167 10.2207C30.4498 10.2207 26.4826 10.2207 22.5156 10.2207Z" fill="#001545"/>
<path d="M22.5156 0.570312C22.5156 2.17844 22.5156 3.78695 22.5156 5.39509C26.6151 5.39509 30.7147 5.39509 34.8142 5.39509L38.5982 0.570312C33.2373 0.570312 27.8766 0.570312 22.5156 0.570312Z" fill="#001545"/>
<path d="M39.8321 0.570312C38.5631 2.19366 37.294 3.81741 36.025 5.44077C37.3626 7.32609 38.6912 9.21811 40.0105 11.1164C42.5155 14.7205 44.9873 18.3475 47.4261 21.9964C47.607 22.2453 47.959 22.6624 48.5364 22.9784C48.7902 23.1173 49.7737 23.6351 50.9555 23.2924C51.8263 23.04 52.3331 22.4567 52.5219 22.2125C55.6943 17.4727 58.8666 12.7335 62.0392 7.99383L64.9737 9.64348L63.3082 1.35587L55.3572 4.24278L58.014 5.73535L50.0829 17.0473L39.8321 0.570312Z" fill="#001545"/>
<path d="M56.6107 0.570312H50.8006C48.9846 2.90932 47.1689 5.2483 45.3529 7.5873L48.1169 11.8281C50.9483 8.07553 53.7794 4.32291 56.6107 0.570312Z" fill="#001545"/>
<path d="M32.4869 25.3379C34.5393 25.3379 36.5914 25.3379 38.6438 25.3379C40.344 22.9854 42.0441 20.6329 43.7447 18.2804C42.7881 16.8768 41.8261 15.4771 40.8595 14.0801C38.0686 17.8327 35.2778 21.5852 32.4869 25.3379Z" fill="#001545"/>
<path d="M19.8869 0.570312C19.5692 0.58175 18.4271 0.661809 17.4307 1.55627C16.3056 2.56589 16.1829 3.88076 16.163 4.15918C16.163 9.58865 16.163 15.0177 16.163 20.4472C12.5711 20.4472 8.9796 20.4472 5.38768 20.4472C5.38768 13.8216 5.38768 7.19593 5.38768 0.570312C4.83307 0.570312 4.27846 0.570312 3.72383 0.570312C3.40613 0.58175 2.26401 0.661809 1.26769 1.55627C0.142616 2.56589 0.0198076 3.88076 0 4.15918C0 9.58865 0 15.0177 0 20.4472C0 20.9504 0 21.454 0 21.9572C0.0114885 22.2455 0.0919074 23.2825 0.990383 24.1867C2.00453 25.2077 3.32531 25.3194 3.60498 25.3375C9.5869 25.3375 15.5688 25.3375 21.5507 25.3375C21.5507 23.7076 21.5507 22.0771 21.5507 20.4472C21.5507 13.8216 21.5507 7.19593 21.5507 0.570312C20.9961 0.570312 20.4415 0.570312 19.8869 0.570312Z" fill="#001545"/>
<path d="M73.848 20.2345C73.8121 19.916 73.6641 19.6693 73.4039 19.4943C73.1437 19.3171 72.8161 19.2285 72.4213 19.2285C72.1387 19.2285 71.8942 19.2733 71.6878 19.3631C71.4815 19.4505 71.3211 19.5717 71.2067 19.7265C71.0945 19.879 71.0384 20.0528 71.0384 20.248C71.0384 20.4117 71.0766 20.5531 71.1528 20.672C71.2313 20.7908 71.3334 20.8907 71.459 20.9714C71.5869 21.0499 71.7237 21.1161 71.8695 21.1699C72.0153 21.2215 72.1555 21.2641 72.2901 21.2978L72.9631 21.4728C73.1829 21.5266 73.4083 21.5995 73.6394 21.6915C73.8704 21.7834 74.0847 21.9046 74.2821 22.0549C74.4795 22.2052 74.6387 22.3913 74.7599 22.6134C74.8832 22.8355 74.9449 23.1013 74.9449 23.4109C74.9449 23.8012 74.844 24.1477 74.6421 24.4506C74.4425 24.7534 74.152 24.9923 73.7706 25.1673C73.3915 25.3422 72.9328 25.4297 72.3944 25.4297C71.8785 25.4297 71.4321 25.3478 71.0553 25.1841C70.6784 25.0203 70.3834 24.7882 70.1703 24.4876C69.9572 24.1848 69.8394 23.8259 69.817 23.4109H70.8601C70.8803 23.6599 70.961 23.8674 71.1024 24.0333C71.2459 24.1971 71.4287 24.3194 71.6508 24.4001C71.8751 24.4786 72.1208 24.5179 72.3877 24.5179C72.6816 24.5179 72.9429 24.4719 73.1717 24.3799C73.4027 24.2857 73.5844 24.1556 73.7168 23.9896C73.8491 23.8214 73.9153 23.6251 73.9153 23.4008C73.9153 23.1966 73.857 23.0295 73.7403 22.8994C73.6259 22.7693 73.47 22.6616 73.2726 22.5764C73.0775 22.4912 72.8565 22.416 72.6098 22.351L71.7955 22.1289C71.2437 21.9786 70.8063 21.7576 70.4832 21.466C70.1625 21.1744 70.0021 20.7886 70.0021 20.3086C70.0021 19.9115 70.1098 19.5649 70.3251 19.2688C70.5404 18.9727 70.8321 18.7428 71.1999 18.5791C71.5678 18.4131 71.9828 18.3301 72.4449 18.3301C72.9115 18.3301 73.3231 18.412 73.6798 18.5757C74.0387 18.7395 74.3213 18.9649 74.5277 19.252C74.7341 19.5369 74.8417 19.8644 74.8507 20.2345H73.848Z" fill="#001545"/>
<path d="M63.7346 18.4238H64.9156L66.7157 21.5564H66.7898L68.5899 18.4238H69.771L67.2709 22.6096V25.3149H66.2346V22.6096L63.7346 18.4238Z" fill="#001545"/>
<path d="M57.8972 25.3149V18.4238H58.9369V21.4185H62.3724V18.4238H63.4154V25.3149H62.3724V22.3101H58.9369V25.3149H57.8972Z" fill="#001545"/>
</svg>
