<svg width="52" height="64" viewBox="0 0 52 64" fill="none" xmlns="http://www.w3.org/2000/svg">
<path d="M16.6142 30.3848L22.768 36.5387L36.6142 22.6925M50.4603 31.9233C50.4603 47.0262 33.9866 58.0107 27.9926 61.5075C27.3114 61.9049 26.9708 62.1036 26.4901 62.2067C26.1171 62.2867 25.5728 62.2867 25.1998 62.2067C24.7191 62.1036 24.3785 61.9049 23.6973 61.5075C17.7033 58.0107 1.22957 47.0262 1.22957 31.9233V17.2082C1.22957 14.7482 1.22957 13.5182 1.63191 12.4608C1.98734 11.5268 2.5649 10.6934 3.31467 10.0326C4.1634 9.28463 5.3151 8.85274 7.61851 7.98897L24.1163 1.80228C24.756 1.5624 25.0759 1.44246 25.4049 1.39491C25.6968 1.35274 25.9932 1.35274 26.285 1.39491C26.614 1.44246 26.9339 1.5624 27.5736 1.80228L44.0714 7.98897C46.3748 8.85274 47.5265 9.28463 48.3752 10.0326C49.125 10.6934 49.7026 11.5268 50.058 12.4608C50.4603 13.5182 50.4603 14.7482 50.4603 17.2082V31.9233Z" stroke="#93C20A" stroke-width="2" stroke-linecap="round" stroke-linejoin="round"/>
</svg>
