<svg width="106" height="35" viewBox="0 0 106 35" fill="none" xmlns="http://www.w3.org/2000/svg">
<path d="M31.6997 27.624V34.8696H36.8249L42.1152 27.624H31.6997Z" fill="#C4F870"/>
<path d="M31.6997 13.585C31.6997 16 31.6997 18.4155 31.6997 20.8305C35.4797 20.8305 39.2594 20.8305 43.0391 20.8305L48.4551 13.585C42.8701 13.585 37.2847 13.585 31.6997 13.585Z" fill="#C4F870"/>
<path d="M31.6996 0C31.6996 2.26406 31.6996 4.52866 31.6996 6.79273C37.4712 6.79273 43.2429 6.79273 49.0145 6.79273L54.342 0C46.7944 0 39.2472 0 31.6996 0Z" fill="#C4F870"/>
<path d="M56.079 0C54.2924 2.28549 52.5058 4.57153 50.7191 6.85704C52.6022 9.51135 54.4728 12.1751 56.3302 14.8477C59.857 19.9219 63.337 25.0282 66.7705 30.1655C67.0252 30.5159 67.5208 31.1031 68.3337 31.5479C68.691 31.7436 70.0756 32.4725 71.7394 31.9901C72.9655 31.6347 73.679 30.8134 73.9448 30.4696C78.4111 23.7967 82.8774 17.1243 87.344 10.4514L91.4755 12.774L89.1306 1.10597L77.9365 5.17041L81.6771 7.27177L70.511 23.1978L56.079 0Z" fill="#C4F870"/>
<path d="M79.7018 0H71.5218C68.9651 3.29304 66.4087 6.58606 63.8521 9.8791L67.7435 15.8497C71.7297 10.5665 75.7156 5.28323 79.7018 0Z" fill="#C4F870"/>
<path d="M45.7379 34.8692C48.6274 34.8692 51.5166 34.8692 54.4062 34.8692C56.7998 31.5572 59.1934 28.2451 61.5876 24.9331C60.2408 22.957 58.8864 20.9863 57.5256 19.0195C53.5963 24.3027 49.6672 29.5859 45.7379 34.8692Z" fill="#C4F870"/>
<path d="M27.9984 0C27.5511 0.0161021 25.9432 0.128817 24.5405 1.38811C22.9565 2.80954 22.7836 4.66072 22.7557 5.05271C22.7557 12.6968 22.7557 20.3403 22.7557 27.9843C17.6987 27.9843 12.6422 27.9843 7.58522 27.9843C7.58522 18.6562 7.58522 9.3281 7.58522 0C6.8044 0 6.02358 0 5.24272 0C4.79544 0.0161021 3.18746 0.128817 1.78476 1.38811C0.200786 2.80954 0.0278868 4.66072 0 5.05271C0 12.6968 0 20.3403 0 27.9843C0 28.6928 0 29.4018 0 30.1103C0.0161744 30.5162 0.129395 31.9761 1.39434 33.2491C2.82214 34.6866 4.68166 34.8438 5.0754 34.8694C13.4972 34.8694 21.9191 34.8694 30.3409 34.8694C30.3409 32.5747 30.3409 30.2791 30.3409 27.9843C30.3409 18.6562 30.3409 9.3281 30.3409 0C29.56 0 28.7792 0 27.9984 0Z" fill="#C4F870"/>
<path d="M103.97 27.6852C103.92 27.2367 103.711 26.8893 103.345 26.643C102.978 26.3935 102.517 26.2687 101.962 26.2687C101.564 26.2687 101.219 26.3319 100.929 26.4582C100.638 26.5814 100.413 26.7519 100.251 26.9698C100.094 27.1846 100.015 27.4293 100.015 27.7041C100.015 27.9346 100.068 28.1336 100.176 28.301C100.286 28.4684 100.43 28.6089 100.607 28.7226C100.787 28.8331 100.979 28.9263 101.185 29.0021C101.39 29.0747 101.587 29.1347 101.777 29.1821L102.724 29.4284C103.034 29.5042 103.351 29.6069 103.676 29.7364C104.002 29.8658 104.303 30.0364 104.581 30.248C104.859 30.4596 105.083 30.7217 105.254 31.0344C105.428 31.347 105.514 31.7212 105.514 32.1571C105.514 32.7066 105.372 33.1945 105.088 33.6209C104.807 34.0472 104.398 34.3835 103.861 34.6299C103.327 34.8762 102.682 34.9994 101.924 34.9994C101.197 34.9994 100.569 34.8841 100.038 34.6536C99.5077 34.423 99.0924 34.0962 98.7924 33.673C98.4924 33.2466 98.3266 32.7413 98.295 32.1571H99.7635C99.7919 32.5076 99.9056 32.7997 100.105 33.0334C100.307 33.264 100.564 33.4361 100.877 33.5498C101.193 33.6603 101.538 33.7156 101.914 33.7156C102.328 33.7156 102.696 33.6509 103.018 33.5214C103.343 33.3887 103.599 33.2056 103.785 32.9719C103.972 32.735 104.065 32.4587 104.065 32.1429C104.065 31.8555 103.983 31.6202 103.819 31.437C103.657 31.2538 103.438 31.1023 103.16 30.9822C102.885 30.8622 102.574 30.7564 102.227 30.6649L101.08 30.3522C100.304 30.1406 99.6877 29.8295 99.233 29.419C98.7813 29.0084 98.5555 28.4652 98.5555 27.7894C98.5555 27.2304 98.7071 26.7425 99.0103 26.3256C99.3135 25.9087 99.724 25.585 100.242 25.3545C100.76 25.1208 101.344 25.0039 101.995 25.0039C102.652 25.0039 103.231 25.1192 103.733 25.3497C104.239 25.5803 104.637 25.8977 104.927 26.3019C105.218 26.703 105.369 27.1641 105.382 27.6852H103.97Z" fill="#B7B7B7"/>
<path d="M89.7315 25.1367H91.3943L93.9287 29.547H94.0329L96.5673 25.1367H98.2301L94.7103 31.0298V34.8385H93.2512V31.0298L89.7315 25.1367Z" fill="#B7B7B7"/>
<path d="M81.5131 34.8385V25.1367H82.9769V29.3528H87.8136V25.1367H89.2821V34.8385H87.8136V30.6082H82.9769V34.8385H81.5131Z" fill="#B7B7B7"/>
</svg>
