<svg width="17" height="16" viewBox="0 0 17 16" fill="none" xmlns="http://www.w3.org/2000/svg">
<path d="M12.4614 7.41569C12.3925 7.38266 12.3225 7.35087 12.2516 7.32043C12.1281 5.04485 10.8847 3.74208 8.79682 3.72875C8.78737 3.72869 8.77796 3.72869 8.7685 3.72869C7.5197 3.72869 6.48109 4.26174 5.84183 5.23173L6.99008 6.0194C7.46763 5.29486 8.2171 5.1404 8.76905 5.1404C8.77542 5.1404 8.78183 5.1404 8.78813 5.14046C9.47558 5.14484 9.99433 5.34472 10.3301 5.7345C10.5744 6.01828 10.7378 6.41042 10.8188 6.90532C10.2093 6.80173 9.55008 6.76988 8.84542 6.81028C6.86039 6.92462 5.58426 8.08232 5.66997 9.691C5.71346 10.507 6.11998 11.209 6.81458 11.6676C7.40187 12.0553 8.15825 12.2448 8.94436 12.2019C9.9825 12.145 10.7969 11.7489 11.3651 11.0247C11.7966 10.4747 12.0695 9.76192 12.19 8.86383C12.6848 9.16242 13.0514 9.55533 13.2539 10.0277C13.5983 10.8306 13.6183 12.15 12.5418 13.2257C11.5985 14.168 10.4647 14.5757 8.75112 14.5883C6.85035 14.5742 5.41282 13.9646 4.47817 12.7764C3.60296 11.6638 3.15064 10.0568 3.13377 8C3.15064 5.94315 3.60296 4.33613 4.47817 3.22356C5.41282 2.03541 6.85033 1.42583 8.7511 1.41171C10.6657 1.42594 12.1283 2.03845 13.0987 3.23233C13.5745 3.8178 13.9333 4.55407 14.1698 5.41253L15.5153 5.05352C15.2287 3.99685 14.7776 3.08631 14.1637 2.33117C12.9197 0.800557 11.1002 0.0162623 8.75579 0H8.74641C6.4068 0.0162058 4.60768 0.803483 3.39902 2.33994C2.32349 3.7072 1.7687 5.60964 1.75006 7.99438L1.75 8L1.75006 8.00562C1.7687 10.3903 2.32349 12.2928 3.39902 13.6601C4.60768 15.1965 6.4068 15.9838 8.74641 16H8.75579C10.8358 15.9856 12.302 15.441 13.5098 14.2343C15.0901 12.6555 15.0425 10.6766 14.5217 9.46175C14.148 8.59058 13.4356 7.88302 12.4614 7.41569ZM8.87004 10.7923C8.00004 10.8413 7.0962 10.4508 7.05163 9.61433C7.0186 8.99417 7.49298 8.30217 8.92343 8.21973C9.08725 8.21028 9.248 8.20567 9.40592 8.20567C9.9255 8.20567 10.4116 8.25614 10.8535 8.35275C10.6887 10.4113 9.72183 10.7455 8.87004 10.7923Z" fill="white"/>
</svg>
