<svg width="368" height="162" viewBox="0 0 368 162" fill="none" xmlns="http://www.w3.org/2000/svg">
<path d="M148.081 129.48V161.314H172.017L196.725 129.48H148.081Z" fill="#AAE500"/>
<path d="M148.081 64.3828C148.081 74.9933 148.081 85.6061 148.081 96.2166C165.349 96.2166 182.616 96.2166 199.882 96.2166L224.625 64.3828C199.11 64.3828 173.595 64.3828 148.081 64.3828Z" fill="#AAE500"/>
<path d="M148.081 0C148.081 10.6104 148.081 21.2233 148.081 31.8338C174.977 31.8338 201.874 31.8338 228.77 31.8338L253.597 0C218.424 0 183.253 0 148.081 0Z" fill="#AAE500"/>
<path d="M261.98 0C253.701 10.6278 245.422 21.2581 237.144 31.8859C245.87 44.2287 254.537 56.6154 263.144 69.0432C279.487 92.6388 295.612 116.383 311.522 140.273C312.702 141.902 314.999 144.633 318.766 146.701C320.422 147.611 326.837 151.001 334.547 148.757C340.229 147.105 343.535 143.286 344.767 141.687C365.462 110.657 386.158 79.6298 406.856 48.6003L426 59.4003L415.134 5.14289L363.263 24.0429L380.596 33.8145L328.855 107.872L261.98 0Z" fill="#AAE500"/>
<path d="M369.486 0H332.751C321.269 15.5318 309.789 31.0634 298.307 46.5951L315.783 74.7557C333.685 49.8372 351.585 24.9185 369.486 0Z" fill="#AAE500"/>
<path d="M213.537 161.314C226.904 161.314 240.271 161.314 253.638 161.314C264.712 145.917 275.785 130.52 286.862 115.123C280.631 105.936 274.365 96.7751 268.07 87.6318C249.891 112.193 231.715 136.753 213.537 161.314Z" fill="#AAE500"/>
<path d="M129.717 0C127.644 0.0744925 120.195 0.59594 113.696 6.42177C106.357 12.9977 105.556 21.5617 105.427 23.3752C105.427 58.7386 105.427 94.0995 105.427 129.463C81.998 129.463 58.5715 129.463 35.1423 129.463C35.1423 86.3086 35.1423 43.1543 35.1423 0C31.5248 0 27.9072 0 24.2895 0C22.2173 0.0744925 14.7675 0.59594 8.26879 6.42177C0.930244 12.9977 0.129199 21.5617 0 23.3752C0 58.7386 0 94.0995 0 129.463C0 132.741 0 136.021 0 139.298C0.074936 141.176 0.599487 147.93 6.46 153.819C13.075 160.469 21.6901 161.197 23.5143 161.315C62.5328 161.315 101.551 161.315 140.569 161.315C140.569 150.699 140.569 140.079 140.569 129.463C140.569 86.3086 140.569 43.1543 140.569 0C136.952 0 133.334 0 129.717 0Z" fill="#AAE500"/>
</svg>
