<svg width="28" height="28" viewBox="0 0 28 28" fill="none" xmlns="http://www.w3.org/2000/svg">
<path d="M10.5 14.0007L12.8333 16.334L18.0833 11.084M8.55604 4.4558C9.49385 4.38096 10.3841 4.01218 11.1002 3.40197C12.7712 1.97799 15.2288 1.97799 16.8998 3.40197C17.6158 4.01218 18.5061 4.38096 19.4439 4.4558C21.6324 4.63044 23.3702 6.36825 23.5448 8.55671C23.6197 9.49452 23.9884 10.3848 24.5987 11.1009C26.0226 12.7718 26.0226 15.2295 24.5987 16.9004C23.9884 17.6165 23.6197 18.5068 23.5448 19.4446C23.3702 21.633 21.6324 23.3709 19.4439 23.5455C18.5061 23.6203 17.6158 23.9891 16.8998 24.5993C15.2288 26.0233 12.7712 26.0233 11.1002 24.5993C10.3841 23.9891 9.49385 23.6203 8.55604 23.5455C6.36758 23.3709 4.62976 21.633 4.45512 19.4446C4.38029 18.5068 4.01151 17.6165 3.4013 16.9004C1.97732 15.2295 1.97732 12.7718 3.4013 11.1009C4.01151 10.3848 4.38029 9.49452 4.45512 8.55671C4.62976 6.36825 6.36758 4.63044 8.55604 4.4558Z" stroke="#001545" stroke-linecap="round" stroke-linejoin="round"/>
</svg>
