<svg width="17" height="16" viewBox="0 0 17 16" fill="none" xmlns="http://www.w3.org/2000/svg">
<path d="M0.333374 16L1.45804 11.8913C0.764041 10.6887 0.399374 9.32533 0.400041 7.92733C0.402041 3.55667 3.95871 0 8.32871 0C10.4494 0.000666667 12.44 0.826667 13.9374 2.32533C15.434 3.824 16.258 5.816 16.2574 7.93467C16.2554 12.306 12.6987 15.8627 8.32871 15.8627C7.00204 15.862 5.69471 15.5293 4.53671 14.8973L0.333374 16ZM4.73137 13.462C5.84871 14.1253 6.91537 14.5227 8.32604 14.5233C11.958 14.5233 14.9167 11.5673 14.9187 7.93333C14.92 4.292 11.9754 1.34 8.33137 1.33867C4.69671 1.33867 1.74004 4.29467 1.73871 7.928C1.73804 9.41133 2.17271 10.522 2.90271 11.684L2.23671 14.116L4.73137 13.462ZM12.3227 9.81933C12.2734 9.73667 12.1414 9.68733 11.9427 9.588C11.7447 9.48867 10.7707 9.00933 10.5887 8.94333C10.4074 8.87733 10.2754 8.844 10.1427 9.04267C10.0107 9.24067 9.63071 9.68733 9.51537 9.81933C9.40004 9.95133 9.28404 9.968 9.08604 9.86867C8.88804 9.76933 8.24937 9.56067 7.49271 8.88533C6.90404 8.36 6.50604 7.71133 6.39071 7.51267C6.27537 7.31467 6.37871 7.20733 6.47737 7.10867C6.56671 7.02 6.67537 6.87733 6.77471 6.76133C6.87537 6.64667 6.90804 6.564 6.97471 6.43133C7.04071 6.29933 7.00804 6.18333 6.95804 6.084C6.90804 5.98533 6.51204 5.01 6.34737 4.61333C6.18604 4.22733 6.02271 4.27933 5.90137 4.27333L5.52137 4.26667C5.38937 4.26667 5.17471 4.316 4.99337 4.51467C4.81204 4.71333 4.30004 5.192 4.30004 6.16733C4.30004 7.14267 5.01004 8.08467 5.10871 8.21667C5.20804 8.34867 6.50537 10.35 8.49271 11.208C8.96537 11.412 9.33471 11.534 9.62204 11.6253C10.0967 11.776 10.5287 11.7547 10.87 11.704C11.2507 11.6473 12.042 11.2247 12.2074 10.762C12.3727 10.2987 12.3727 9.902 12.3227 9.81933Z" fill="white"/>
</svg>
